<svg viewBox="-3 -3 109.71 65.2" xmlns="http://www.w3.org/2000/svg"><rect fill="#FDFDFC" height="65.2" width="109.71" x="-3" y="-3"/><defs><pattern height="8" id="cv-pat-1" patternUnits="userSpaceOnUse" width="8"><rect fill="#0072B2" height="8" width="8"/></pattern><pattern height="8" id="cv-pat-2" patternUnits="userSpaceOnUse" width="8"><rect fill="#9ED9F5" height="8" width="8"/><line stroke="#3E8BB5" stroke-width="1.2" x1="0" x2="8" y1="8" y2="0"/><line stroke="#3E8BB5" stroke-width="1.2" x1="-1" x2="1" y1="1" y2="-1"/><line stroke="#3E8BB5" stroke-width="1.2" x1="7" x2="9" y1="9" y2="7"/></pattern><pattern height="8" id="cv-pat-3" patternUnits="userSpaceOnUse" width="8"><rect fill="#D55E00" height="8" width="8"/><line stroke="#8A3D00" stroke-width="1.2" x1="0" x2="8" y1="0" y2="8"/><line stroke="#8A3D00" stroke-width="1.2" x1="-1" x2="1" y1="7" y2="9"/><line stroke="#8A3D00" stroke-width="1.2" x1="7" x2="9" y1="-1" y2="1"/></pattern><pattern height="8" id="cv-pat-4" patternUnits="userSpaceOnUse" width="8"><rect fill="#009E73" height="8" width="8"/><circle cx="4" cy="4" fill="#006147" r="1.4"/></pattern><pattern height="8" id="cv-pat-5" patternUnits="userSpaceOnUse" width="8"><rect fill="#E69F00" height="8" width="8"/><line stroke="#9A6B00" stroke-width="1.2" x1="0" x2="8" y1="4" y2="4"/><line stroke="#9A6B00" stroke-width="1.2" x1="4" x2="4" y1="0" y2="8"/></pattern><pattern height="8" id="cv-pat-6" patternUnits="userSpaceOnUse" width="8"><rect fill="#CC79A7" height="8" width="8"/><line stroke="#8A4E70" stroke-width="1.2" x1="0" x2="8" y1="4" y2="4"/></pattern><pattern height="8" id="cv-pat-7" patternUnits="userSpaceOnUse" width="8"><rect fill="#F0E442" height="8" width="8"/><line stroke="#9C9400" stroke-width="1.2" x1="4" x2="4" y1="0" y2="8"/></pattern><pattern height="8" id="cv-pat-8" patternUnits="userSpaceOnUse" width="8"><rect fill="#3A3A3A" height="8" width="8"/><line stroke="#000000" stroke-width="1.2" x1="0" x2="8" y1="0" y2="8"/><line stroke="#000000" stroke-width="1.2" x1="0" x2="8" y1="8" y2="0"/></pattern></defs><g class="cv-algebra"><g class="cv-alg-row"><text data-el="r0-e1" fill="#1A1A17" font-family="'KaTeX_Main', 'Latin Modern Math', serif" font-size="5" font-style="italic" x="19.46" y="3.6">x</text><text data-el="r0-e4" fill="#1A1A17" font-family="'KaTeX_Main', 'Latin Modern Math', serif" font-size="5" x="22.88" y="3.6">−</text><text data-el="r0-e3" fill="#1A1A17" font-family="'KaTeX_Main', 'Latin Modern Math', serif" font-size="5" x="27.87" y="3.6">2</text><text data-el="r0-e9" fill="#1A1A17" font-family="'KaTeX_Main', 'Latin Modern Math', serif" font-size="5" x="33.17" y="3.6">=</text><text data-el="r0-e6" fill="#1A1A17" font-family="'KaTeX_Main', 'Latin Modern Math', serif" font-size="5" x="38.56" y="3.6">3</text><text data-el="r0-e7" fill="#1A1A17" font-family="'KaTeX_Main', 'Latin Modern Math', serif" font-size="5" font-style="italic" x="41.06" y="3.6">x</text><path d="M18.68 0L18.68 4.8" data-el="r0-e5" fill="none" stroke="#1A1A17" stroke-linecap="round" stroke-linejoin="round" stroke-width="0.35"/><path d="M31.15 0L31.15 4.8" data-el="r0-e5" fill="none" stroke="#1A1A17" stroke-linecap="round" stroke-linejoin="round" stroke-width="0.35"/><g><rect fill="none" height="5.4" rx="0.6" width="2.92" x="19.16" y="-0.3"/></g><g><rect fill="none" height="5.4" rx="0.6" width="3.1" x="27.57" y="-0.3"/></g><g><rect fill="none" height="5.4" rx="0.6" width="11.51" x="19.16" y="-0.3"/></g><g><rect fill="none" height="5.4" rx="0.6" width="14.11" x="17.86" y="-0.3"/></g><g><rect fill="none" height="5.4" rx="0.6" width="3.1" x="38.26" y="-0.3"/></g><g><rect fill="none" height="5.4" rx="0.6" width="2.92" x="40.76" y="-0.3"/></g><g><rect fill="none" height="5.4" rx="0.6" width="5.42" x="38.26" y="-0.3"/></g><g><rect fill="none" height="5.4" rx="0.6" width="25.82" x="17.86" y="-0.3"/></g><g><rect fill="none" height="6" rx="0.8" width="26.42" x="17.56" y="-0.6"/></g></g><g class="cv-alg-row"><text data-el="r1-e14" fill="#1A1A17" font-family="'KaTeX_Main', 'Latin Modern Math', serif" font-size="5" x="12.27" y="11.5">−</text><text data-el="r1-e11" fill="#1A1A17" font-family="'KaTeX_Main', 'Latin Modern Math', serif" font-size="5" font-style="italic" x="18.46" y="11.5">x</text><text data-el="r1-e10" fill="#1A1A17" font-family="'KaTeX_Main', 'Latin Modern Math', serif" font-size="5" x="21.88" y="11.5">−</text><text data-el="r1-e12" fill="#1A1A17" font-family="'KaTeX_Main', 'Latin Modern Math', serif" font-size="5" x="26.87" y="11.5">2</text><text data-el="r1-e9" fill="#1A1A17" font-family="'KaTeX_Main', 'Latin Modern Math', serif" font-size="5" x="33.17" y="11.5">=</text><text data-el="r1-e6" fill="#1A1A17" font-family="'KaTeX_Main', 'Latin Modern Math', serif" font-size="5" x="38.56" y="11.5">3</text><text data-el="r1-e7" fill="#1A1A17" font-family="'KaTeX_Main', 'Latin Modern Math', serif" font-size="5" font-style="italic" x="41.06" y="11.5">x</text><path d="M18.01 7.6Q16.01 10.3 18.01 13" data-el="r1-e14" fill="none" stroke="#1A1A17" stroke-linecap="round" stroke-linejoin="round" stroke-width="0.375"/><path d="M29.82 7.6Q31.82 10.3 29.82 13" data-el="r1-e14" fill="none" stroke="#1A1A17" stroke-linecap="round" stroke-linejoin="round" stroke-width="0.375"/><g><rect fill="none" height="5.4" rx="0.6" width="2.92" x="18.16" y="7.6"/></g><g><rect fill="none" height="5.4" rx="0.6" width="3.1" x="26.57" y="7.6"/></g><g><rect fill="none" height="5.4" rx="0.6" width="11.51" x="18.16" y="7.6"/></g><g><rect fill="none" height="6" rx="0.6" width="20" x="11.97" y="7.3"/></g><g><rect fill="none" height="5.4" rx="0.6" width="3.1" x="38.26" y="7.6"/></g><g><rect fill="none" height="5.4" rx="0.6" width="2.92" x="40.76" y="7.6"/></g><g><rect fill="none" height="5.4" rx="0.6" width="5.42" x="38.26" y="7.6"/></g><g><rect fill="none" height="6" rx="0.6" width="31.71" x="11.97" y="7.3"/></g><g><rect fill="none" height="6.6" rx="0.8" width="32.31" x="11.67" y="7"/></g><text data-el="row1" fill="#C4C4BD" font-family="'Inter', 'Segoe UI', system-ui, sans-serif" font-size="3.1" x="62.79" y="11.488">bỏ dấu giá trị tuyệt đối</text></g><g class="cv-alg-row"><text data-el="r2-e18" fill="#1A1A17" font-family="'KaTeX_Main', 'Latin Modern Math', serif" font-size="5" x="0" y="19.7">−</text><text data-el="r2-e11" fill="#1A1A17" font-family="'KaTeX_Main', 'Latin Modern Math', serif" font-size="5" font-style="italic" x="3.89" y="19.7">x</text><text data-el="r2-e18" fill="#1A1A17" font-family="'KaTeX_Main', 'Latin Modern Math', serif" font-size="5" x="7.31" y="19.7">+</text><text data-el="r2-e16" fill="#1A1A17" font-family="'KaTeX_Main', 'Latin Modern Math', serif" font-size="5" x="12.3" y="19.7">−1</text><text data-el="r2-e17" fill="#1A1A17" font-family="'KaTeX_Main', 'Latin Modern Math', serif" font-size="5" x="18.99" y="19.7">⋅</text><text data-el="r2-e12" fill="#1A1A17" font-family="'KaTeX_Main', 'Latin Modern Math', serif" font-size="5" x="22.98" y="19.7">−2</text><text data-el="r2-e9" fill="#1A1A17" font-family="'KaTeX_Main', 'Latin Modern Math', serif" font-size="5" x="33.17" y="19.7">=</text><text data-el="r2-e6" fill="#1A1A17" font-family="'KaTeX_Main', 'Latin Modern Math', serif" font-size="5" x="38.56" y="19.7">3</text><text data-el="r2-e7" fill="#1A1A17" font-family="'KaTeX_Main', 'Latin Modern Math', serif" font-size="5" font-style="italic" x="41.06" y="19.7">x</text><path d="M22.53 15.8Q20.53 18.5 22.53 21.2" data-el="r2-e17" fill="none" stroke="#1A1A17" stroke-linecap="round" stroke-linejoin="round" stroke-width="0.375"/><path d="M29.82 15.8Q31.82 18.5 29.82 21.2" data-el="r2-e17" fill="none" stroke="#1A1A17" stroke-linecap="round" stroke-linejoin="round" stroke-width="0.375"/><g><rect fill="none" height="5.4" rx="0.6" width="2.92" x="3.59" y="15.8"/></g><g><rect fill="none" height="5.4" rx="0.6" width="6.99" x="12" y="15.8"/></g><g><rect fill="none" height="5.4" rx="0.6" width="6.99" x="22.68" y="15.8"/></g><g><rect fill="none" height="6" rx="0.6" width="19.97" x="12" y="15.5"/></g><g><rect fill="none" height="6" rx="0.6" width="32.27" x="-0.3" y="15.5"/></g><g><rect fill="none" height="5.4" rx="0.6" width="3.1" x="38.26" y="15.8"/></g><g><rect fill="none" height="5.4" rx="0.6" width="2.92" x="40.76" y="15.8"/></g><g><rect fill="none" height="5.4" rx="0.6" width="5.42" x="38.26" y="15.8"/></g><g><rect fill="none" height="6" rx="0.6" width="43.98" x="-0.3" y="15.5"/></g><g><rect fill="none" height="6.6" rx="0.8" width="44.58" x="-0.6" y="15.2"/></g><text data-el="row2" fill="#C4C4BD" font-family="'Inter', 'Segoe UI', system-ui, sans-serif" font-size="3.1" x="62.79" y="19.688">nhân phân phối</text></g><g class="cv-alg-row"><text data-el="r3-e18" fill="#1A1A17" font-family="'KaTeX_Main', 'Latin Modern Math', serif" font-size="5" x="16.87" y="27.6">−</text><text data-el="r3-e11" fill="#1A1A17" font-family="'KaTeX_Main', 'Latin Modern Math', serif" font-size="5" font-style="italic" x="20.76" y="27.6">x</text><text data-el="r3-e18" fill="#1A1A17" font-family="'KaTeX_Main', 'Latin Modern Math', serif" font-size="5" x="24.18" y="27.6">+</text><text data-el="r3-e20" fill="#1A1A17" font-family="'KaTeX_Main', 'Latin Modern Math', serif" font-size="5" x="29.17" y="27.6">2</text><text data-el="r3-e9" fill="#1A1A17" font-family="'KaTeX_Main', 'Latin Modern Math', serif" font-size="5" x="33.17" y="27.6">=</text><text data-el="r3-e6" fill="#1A1A17" font-family="'KaTeX_Main', 'Latin Modern Math', serif" font-size="5" x="38.56" y="27.6">3</text><text data-el="r3-e7" fill="#1A1A17" font-family="'KaTeX_Main', 'Latin Modern Math', serif" font-size="5" font-style="italic" x="41.06" y="27.6">x</text><g><rect fill="none" height="5.4" rx="0.6" width="2.92" x="20.46" y="23.7"/></g><g><rect fill="none" height="5.4" rx="0.6" width="3.1" x="28.87" y="23.7"/></g><g><rect fill="none" height="5.4" rx="0.6" width="15.4" x="16.57" y="23.7"/></g><g><rect fill="none" height="5.4" rx="0.6" width="3.1" x="38.26" y="23.7"/></g><g><rect fill="none" height="5.4" rx="0.6" width="2.92" x="40.76" y="23.7"/></g><g><rect fill="none" height="5.4" rx="0.6" width="5.42" x="38.26" y="23.7"/></g><g><rect fill="none" height="5.4" rx="0.6" width="27.11" x="16.57" y="23.7"/></g><g><rect fill="none" height="6" rx="0.8" width="27.71" x="16.27" y="23.4"/></g><text data-el="row3" fill="#C4C4BD" font-family="'Inter', 'Segoe UI', system-ui, sans-serif" font-size="3.1" x="62.79" y="27.456">gộp hệ số</text></g><g class="cv-alg-row"><text data-el="r4-e23" fill="#1A1A17" font-family="'KaTeX_Main', 'Latin Modern Math', serif" font-size="5" x="8.46" y="35.2">−</text><text data-el="r4-e11" fill="#1A1A17" font-family="'KaTeX_Main', 'Latin Modern Math', serif" font-size="5" font-style="italic" x="12.35" y="35.2">x</text><text data-el="r4-e23" fill="#1A1A17" font-family="'KaTeX_Main', 'Latin Modern Math', serif" font-size="5" x="15.77" y="35.2">+</text><text data-el="r4-e20" fill="#1A1A17" font-family="'KaTeX_Main', 'Latin Modern Math', serif" font-size="5" x="20.76" y="35.2">2</text><text data-el="r4-e23" fill="#1A1A17" font-family="'KaTeX_Main', 'Latin Modern Math', serif" font-size="5" x="24.36" y="35.2">+</text><text data-el="r4-e21" fill="#1A1A17" font-family="'KaTeX_Main', 'Latin Modern Math', serif" font-size="5" font-style="italic" x="29.35" y="35.2">x</text><text data-el="r4-e9" fill="#1A1A17" font-family="'KaTeX_Main', 'Latin Modern Math', serif" font-size="5" x="33.17" y="35.2">=</text><text data-el="r4-e6" fill="#1A1A17" font-family="'KaTeX_Main', 'Latin Modern Math', serif" font-size="5" x="38.56" y="35.2">3</text><text data-el="r4-e7" fill="#1A1A17" font-family="'KaTeX_Main', 'Latin Modern Math', serif" font-size="5" font-style="italic" x="41.06" y="35.2">x</text><text data-el="r4-e24" fill="#1A1A17" font-family="'KaTeX_Main', 'Latin Modern Math', serif" font-size="5" x="44.48" y="35.2">+</text><text data-el="r4-e22" fill="#1A1A17" font-family="'KaTeX_Main', 'Latin Modern Math', serif" font-size="5" font-style="italic" x="49.47" y="35.2">x</text><g><rect fill="none" height="5.4" rx="0.6" width="2.92" x="12.05" y="31.3"/></g><g><rect fill="none" height="5.4" rx="0.6" width="3.1" x="20.46" y="31.3"/></g><g><rect fill="none" height="5.4" rx="0.6" width="2.92" x="29.05" y="31.3"/></g><g><rect fill="none" height="5.4" rx="0.6" width="23.81" x="8.16" y="31.3"/></g><g><rect fill="none" height="5.4" rx="0.6" width="3.1" x="38.26" y="31.3"/></g><g><rect fill="none" height="5.4" rx="0.6" width="2.92" x="40.76" y="31.3"/></g><g><rect fill="none" height="5.4" rx="0.6" width="5.42" x="38.26" y="31.3"/></g><g><rect fill="none" height="5.4" rx="0.6" width="2.92" x="49.17" y="31.3"/></g><g><rect fill="none" height="5.4" rx="0.6" width="13.83" x="38.26" y="31.3"/></g><g><rect fill="none" height="5.4" rx="0.6" width="43.93" x="8.16" y="31.3"/></g><g><rect fill="none" height="6" rx="0.8" width="44.53" x="7.86" y="31"/></g><text data-el="row4" fill="#C4C4BD" font-family="'Inter', 'Segoe UI', system-ui, sans-serif" font-size="3.1" x="62.79" y="35.056">cộng vào hai vế</text></g><g class="cv-alg-row"><text data-el="r5-e20" fill="#1A1A17" font-family="'KaTeX_Main', 'Latin Modern Math', serif" font-size="5" x="29.17" y="42.8">2</text><text data-el="r5-e9" fill="#1A1A17" font-family="'KaTeX_Main', 'Latin Modern Math', serif" font-size="5" x="33.17" y="42.8">=</text><text data-el="r5-e6" fill="#1A1A17" font-family="'KaTeX_Main', 'Latin Modern Math', serif" font-size="5" x="38.56" y="42.8">3</text><text data-el="r5-e7" fill="#1A1A17" font-family="'KaTeX_Main', 'Latin Modern Math', serif" font-size="5" font-style="italic" x="41.06" y="42.8">x</text><text data-el="r5-e24" fill="#1A1A17" font-family="'KaTeX_Main', 'Latin Modern Math', serif" font-size="5" x="44.48" y="42.8">+</text><text data-el="r5-e22" fill="#1A1A17" font-family="'KaTeX_Main', 'Latin Modern Math', serif" font-size="5" font-style="italic" x="49.47" y="42.8">x</text><g><rect fill="none" height="5.4" rx="0.6" width="3.1" x="28.87" y="38.9"/></g><g><rect fill="none" height="5.4" rx="0.6" width="3.1" x="38.26" y="38.9"/></g><g><rect fill="none" height="5.4" rx="0.6" width="2.92" x="40.76" y="38.9"/></g><g><rect fill="none" height="5.4" rx="0.6" width="5.42" x="38.26" y="38.9"/></g><g><rect fill="none" height="5.4" rx="0.6" width="2.92" x="49.17" y="38.9"/></g><g><rect fill="none" height="5.4" rx="0.6" width="13.83" x="38.26" y="38.9"/></g><g><rect fill="none" height="5.4" rx="0.6" width="23.22" x="28.87" y="38.9"/></g><g><rect fill="none" height="6" rx="0.8" width="23.82" x="28.57" y="38.6"/></g><text data-el="row5" fill="#C4C4BD" font-family="'Inter', 'Segoe UI', system-ui, sans-serif" font-size="3.1" x="62.79" y="42.656">gộp hạng tử đồng dạng</text></g><g class="cv-alg-row"><text data-el="r6-e20" fill="#1A1A17" font-family="'KaTeX_Main', 'Latin Modern Math', serif" font-size="5" x="29.17" y="50.4">2</text><text data-el="r6-e9" fill="#1A1A17" font-family="'KaTeX_Main', 'Latin Modern Math', serif" font-size="5" x="33.17" y="50.4">=</text><text data-el="r6-e25" fill="#1A1A17" font-family="'KaTeX_Main', 'Latin Modern Math', serif" font-size="5" x="38.56" y="50.4">4</text><text data-el="r6-e7" fill="#1A1A17" font-family="'KaTeX_Main', 'Latin Modern Math', serif" font-size="5" font-style="italic" x="41.06" y="50.4">x</text><g><rect fill="none" height="5.4" rx="0.6" width="3.1" x="28.87" y="46.5"/></g><g><rect fill="none" height="5.4" rx="0.6" width="3.1" x="38.26" y="46.5"/></g><g><rect fill="none" height="5.4" rx="0.6" width="2.92" x="40.76" y="46.5"/></g><g><rect fill="none" height="5.4" rx="0.6" width="5.42" x="38.26" y="46.5"/></g><g><rect fill="none" height="5.4" rx="0.6" width="14.81" x="28.87" y="46.5"/></g><g><rect fill="none" height="6" rx="0.8" width="15.41" x="28.57" y="46.2"/></g><text data-el="row6" fill="#C4C4BD" font-family="'Inter', 'Segoe UI', system-ui, sans-serif" font-size="3.1" x="62.79" y="50.256">gộp hạng tử đồng dạng</text></g><text fill="#C5221F" font-family="'Inter', 'Segoe UI', system-ui, sans-serif" font-size="3" x="0" y="56.8">với x − 2 ≤ 0</text></g></svg>