<svg viewBox="-3 -3 151.6 44.321" xmlns="http://www.w3.org/2000/svg"><rect fill="#FDFDFC" height="44.321" width="151.6" x="-3" y="-3"/><defs><pattern height="8" id="cv-pat-1" patternUnits="userSpaceOnUse" width="8"><rect fill="#0072B2" height="8" width="8"/></pattern><pattern height="8" id="cv-pat-2" patternUnits="userSpaceOnUse" width="8"><rect fill="#9ED9F5" height="8" width="8"/><line stroke="#3E8BB5" stroke-width="1.2" x1="0" x2="8" y1="8" y2="0"/><line stroke="#3E8BB5" stroke-width="1.2" x1="-1" x2="1" y1="1" y2="-1"/><line stroke="#3E8BB5" stroke-width="1.2" x1="7" x2="9" y1="9" y2="7"/></pattern><pattern height="8" id="cv-pat-3" patternUnits="userSpaceOnUse" width="8"><rect fill="#D55E00" height="8" width="8"/><line stroke="#8A3D00" stroke-width="1.2" x1="0" x2="8" y1="0" y2="8"/><line stroke="#8A3D00" stroke-width="1.2" x1="-1" x2="1" y1="7" y2="9"/><line stroke="#8A3D00" stroke-width="1.2" x1="7" x2="9" y1="-1" y2="1"/></pattern><pattern height="8" id="cv-pat-4" patternUnits="userSpaceOnUse" width="8"><rect fill="#009E73" height="8" width="8"/><circle cx="4" cy="4" fill="#006147" r="1.4"/></pattern><pattern height="8" id="cv-pat-5" patternUnits="userSpaceOnUse" width="8"><rect fill="#E69F00" height="8" width="8"/><line stroke="#9A6B00" stroke-width="1.2" x1="0" x2="8" y1="4" y2="4"/><line stroke="#9A6B00" stroke-width="1.2" x1="4" x2="4" y1="0" y2="8"/></pattern><pattern height="8" id="cv-pat-6" patternUnits="userSpaceOnUse" width="8"><rect fill="#CC79A7" height="8" width="8"/><line stroke="#8A4E70" stroke-width="1.2" x1="0" x2="8" y1="4" y2="4"/></pattern><pattern height="8" id="cv-pat-7" patternUnits="userSpaceOnUse" width="8"><rect fill="#F0E442" height="8" width="8"/><line stroke="#9C9400" stroke-width="1.2" x1="4" x2="4" y1="0" y2="8"/></pattern><pattern height="8" id="cv-pat-8" patternUnits="userSpaceOnUse" width="8"><rect fill="#3A3A3A" height="8" width="8"/><line stroke="#000000" stroke-width="1.2" x1="0" x2="8" y1="0" y2="8"/><line stroke="#000000" stroke-width="1.2" x1="0" x2="8" y1="8" y2="0"/></pattern></defs><g class="cv-algebra"><g class="cv-alg-row"><text data-el="r0-e9" fill="#1A1A17" font-family="'KaTeX_Main', 'Latin Modern Math', serif" font-size="5" x="67.83" y="4.092">(</text><text data-el="r0-e1" fill="#1A1A17" font-family="'KaTeX_Main', 'Latin Modern Math', serif" font-size="5" font-style="italic" x="69.775" y="4.242">u</text><text data-el="r0-e2" fill="#1A1A17" font-family="'KaTeX_Main', 'Latin Modern Math', serif" font-size="5" font-style="italic" x="72.46" y="4.242">p</text><text data-el="r0-e7" fill="#1A1A17" font-family="'KaTeX_Main', 'Latin Modern Math', serif" font-size="5" x="76.115" y="4.242">+</text><text data-el="r0-e4" fill="#1A1A17" font-family="'KaTeX_Main', 'Latin Modern Math', serif" font-size="5" font-style="italic" x="81.105" y="4.242">v</text><text data-el="r0-e5" fill="#1A1A17" font-family="'KaTeX_Main', 'Latin Modern Math', serif" font-size="5" font-style="italic" x="83.405" y="4.242">q</text><text data-el="r0-e9" fill="#1A1A17" font-family="'KaTeX_Main', 'Latin Modern Math', serif" font-size="5" x="85.705" y="4.092">)</text><text data-el="r0-e8" fill="#1A1A17" font-family="'KaTeX_Main', 'Latin Modern Math', serif" font-size="3.4" x="87.65" y="2.448">3</text><text data-el="r0-e11" fill="#1A1A17" font-family="'KaTeX_Main', 'Latin Modern Math', serif" font-size="5" x="90.85" y="4.242">=</text><text data-el="r0-e10" fill="#1A1A17" font-family="'KaTeX_Main', 'Latin Modern Math', serif" font-size="5" x="96.24" y="4.242">1</text><g><rect fill="none" height="5.4" rx="0.6" width="3.285" x="69.475" y="0.342"/></g><g><rect fill="none" height="5.4" rx="0.6" width="3.155" x="72.16" y="0.342"/></g><g><rect fill="none" height="5.4" rx="0.6" width="5.84" x="69.475" y="0.342"/></g><g><rect fill="none" height="5.4" rx="0.6" width="2.9" x="80.805" y="0.342"/></g><g><rect fill="none" height="5.4" rx="0.6" width="2.9" x="83.105" y="0.342"/></g><g><rect fill="none" height="5.4" rx="0.6" width="5.2" x="80.805" y="0.342"/></g><g><rect fill="none" height="5.4" rx="0.6" width="16.53" x="69.475" y="0.342"/></g><g><rect fill="none" height="3.864" rx="0.6" width="2.3" x="87.35" y="-0.3"/></g><g><rect fill="none" height="6.042" rx="0.6" width="22.12" x="67.53" y="-0.3"/></g><g><rect fill="none" height="5.4" rx="0.6" width="3.1" x="95.94" y="0.342"/></g><g><rect fill="none" height="6.042" rx="0.6" width="31.51" x="67.53" y="-0.3"/></g><g><rect fill="none" height="6.642" rx="0.8" width="32.11" x="67.23" y="-0.6"/></g></g><g class="cv-alg-row"><text data-el="r1-e13" fill="#1A1A17" font-family="'KaTeX_Main', 'Latin Modern Math', serif" font-size="5" x="14.2" y="12.334">(</text><text data-el="r1-e1" fill="#1A1A17" font-family="'KaTeX_Main', 'Latin Modern Math', serif" font-size="5" font-style="italic" x="16.145" y="12.484">u</text><text data-el="r1-e2" fill="#1A1A17" font-family="'KaTeX_Main', 'Latin Modern Math', serif" font-size="5" font-style="italic" x="18.83" y="12.484">p</text><text data-el="r1-e13" fill="#1A1A17" font-family="'KaTeX_Main', 'Latin Modern Math', serif" font-size="5" x="21.385" y="12.334">)</text><text data-el="r1-e12" fill="#1A1A17" font-family="'KaTeX_Main', 'Latin Modern Math', serif" font-size="3.4" x="23.33" y="10.69">3</text><text data-el="r1-e36" fill="#1A1A17" font-family="'KaTeX_Main', 'Latin Modern Math', serif" font-size="5" x="26.13" y="12.484">+</text><text data-el="r1-e14" fill="#1A1A17" font-family="'KaTeX_Main', 'Latin Modern Math', serif" font-size="5" x="31.12" y="12.484">3</text><text data-el="r1-e19" fill="#1A1A17" font-family="'KaTeX_Main', 'Latin Modern Math', serif" font-size="5" x="33.62" y="12.334">(</text><text data-el="r1-e16" fill="#1A1A17" font-family="'KaTeX_Main', 'Latin Modern Math', serif" font-size="5" font-style="italic" x="35.565" y="12.484">u</text><text data-el="r1-e17" fill="#1A1A17" font-family="'KaTeX_Main', 'Latin Modern Math', serif" font-size="5" font-style="italic" x="38.25" y="12.484">p</text><text data-el="r1-e19" fill="#1A1A17" font-family="'KaTeX_Main', 'Latin Modern Math', serif" font-size="5" x="40.805" y="12.334">)</text><text data-el="r1-e18" fill="#1A1A17" font-family="'KaTeX_Main', 'Latin Modern Math', serif" font-size="3.4" x="42.75" y="10.69">2</text><text data-el="r1-e21" fill="#1A1A17" font-family="'KaTeX_Main', 'Latin Modern Math', serif" font-size="5" font-style="italic" x="44.45" y="12.484">v</text><text data-el="r1-e22" fill="#1A1A17" font-family="'KaTeX_Main', 'Latin Modern Math', serif" font-size="5" font-style="italic" x="46.75" y="12.484">q</text><text data-el="r1-e36" fill="#1A1A17" font-family="'KaTeX_Main', 'Latin Modern Math', serif" font-size="5" x="50.15" y="12.484">+</text><text data-el="r1-e24" fill="#1A1A17" font-family="'KaTeX_Main', 'Latin Modern Math', serif" font-size="5" x="55.14" y="12.484">3</text><text data-el="r1-e26" fill="#1A1A17" font-family="'KaTeX_Main', 'Latin Modern Math', serif" font-size="5" font-style="italic" x="57.64" y="12.484">u</text><text data-el="r1-e27" fill="#1A1A17" font-family="'KaTeX_Main', 'Latin Modern Math', serif" font-size="5" font-style="italic" x="60.325" y="12.484">p</text><text data-el="r1-e32" fill="#1A1A17" font-family="'KaTeX_Main', 'Latin Modern Math', serif" font-size="5" x="62.88" y="12.334">(</text><text data-el="r1-e29" fill="#1A1A17" font-family="'KaTeX_Main', 'Latin Modern Math', serif" font-size="5" font-style="italic" x="64.825" y="12.484">v</text><text data-el="r1-e30" fill="#1A1A17" font-family="'KaTeX_Main', 'Latin Modern Math', serif" font-size="5" font-style="italic" x="67.125" y="12.484">q</text><text data-el="r1-e32" fill="#1A1A17" font-family="'KaTeX_Main', 'Latin Modern Math', serif" font-size="5" x="69.425" y="12.334">)</text><text data-el="r1-e31" fill="#1A1A17" font-family="'KaTeX_Main', 'Latin Modern Math', serif" font-size="3.4" x="71.37" y="10.69">2</text><text data-el="r1-e36" fill="#1A1A17" font-family="'KaTeX_Main', 'Latin Modern Math', serif" font-size="5" x="74.17" y="12.484">+</text><text data-el="r1-e35" fill="#1A1A17" font-family="'KaTeX_Main', 'Latin Modern Math', serif" font-size="5" x="79.16" y="12.334">(</text><text data-el="r1-e4" fill="#1A1A17" font-family="'KaTeX_Main', 'Latin Modern Math', serif" font-size="5" font-style="italic" x="81.105" y="12.484">v</text><text data-el="r1-e5" fill="#1A1A17" font-family="'KaTeX_Main', 'Latin Modern Math', serif" font-size="5" font-style="italic" x="83.405" y="12.484">q</text><text data-el="r1-e35" fill="#1A1A17" font-family="'KaTeX_Main', 'Latin Modern Math', serif" font-size="5" x="85.705" y="12.334">)</text><text data-el="r1-e34" fill="#1A1A17" font-family="'KaTeX_Main', 'Latin Modern Math', serif" font-size="3.4" x="87.65" y="10.69">3</text><text data-el="r1-e11" fill="#1A1A17" font-family="'KaTeX_Main', 'Latin Modern Math', serif" font-size="5" x="90.85" y="12.484">=</text><text data-el="r1-e10" fill="#1A1A17" font-family="'KaTeX_Main', 'Latin Modern Math', serif" font-size="5" x="96.24" y="12.484">1</text><g><rect fill="none" height="5.4" rx="0.6" width="3.285" x="15.845" y="8.584"/></g><g><rect fill="none" height="5.4" rx="0.6" width="3.155" x="18.53" y="8.584"/></g><g><rect fill="none" height="5.4" rx="0.6" width="5.84" x="15.845" y="8.584"/></g><g><rect fill="none" height="3.864" rx="0.6" width="2.3" x="23.03" y="7.942"/></g><g><rect fill="none" height="6.042" rx="0.6" width="11.43" x="13.9" y="7.942"/></g><g><rect fill="none" height="5.4" rx="0.6" width="3.1" x="30.82" y="8.584"/></g><g><rect fill="none" height="5.4" rx="0.6" width="3.285" x="35.265" y="8.584"/></g><g><rect fill="none" height="5.4" rx="0.6" width="3.155" x="37.95" y="8.584"/></g><g><rect fill="none" height="5.4" rx="0.6" width="5.84" x="35.265" y="8.584"/></g><g><rect fill="none" height="3.864" rx="0.6" width="2.3" x="42.45" y="7.942"/></g><g><rect fill="none" height="6.042" rx="0.6" width="11.43" x="33.32" y="7.942"/></g><g><rect fill="none" height="5.4" rx="0.6" width="2.9" x="44.15" y="8.584"/></g><g><rect fill="none" height="5.4" rx="0.6" width="2.9" x="46.45" y="8.584"/></g><g><rect fill="none" height="6.042" rx="0.6" width="18.53" x="30.82" y="7.942"/></g><g><rect fill="none" height="5.4" rx="0.6" width="3.1" x="54.84" y="8.584"/></g><g><rect fill="none" height="5.4" rx="0.6" width="3.285" x="57.34" y="8.584"/></g><g><rect fill="none" height="5.4" rx="0.6" width="3.155" x="60.025" y="8.584"/></g><g><rect fill="none" height="5.4" rx="0.6" width="2.9" x="64.525" y="8.584"/></g><g><rect fill="none" height="5.4" rx="0.6" width="2.9" x="66.825" y="8.584"/></g><g><rect fill="none" height="5.4" rx="0.6" width="5.2" x="64.525" y="8.584"/></g><g><rect fill="none" height="3.864" rx="0.6" width="2.3" x="71.07" y="7.942"/></g><g><rect fill="none" height="6.042" rx="0.6" width="10.79" x="62.58" y="7.942"/></g><g><rect fill="none" height="6.042" rx="0.6" width="18.53" x="54.84" y="7.942"/></g><g><rect fill="none" height="5.4" rx="0.6" width="2.9" x="80.805" y="8.584"/></g><g><rect fill="none" height="5.4" rx="0.6" width="2.9" x="83.105" y="8.584"/></g><g><rect fill="none" height="5.4" rx="0.6" width="5.2" x="80.805" y="8.584"/></g><g><rect fill="none" height="3.864" rx="0.6" width="2.3" x="87.35" y="7.942"/></g><g><rect fill="none" height="6.042" rx="0.6" width="10.79" x="78.86" y="7.942"/></g><g><rect fill="none" height="6.042" rx="0.6" width="75.75" x="13.9" y="7.942"/></g><g><rect fill="none" height="5.4" rx="0.6" width="3.1" x="95.94" y="8.584"/></g><g><rect fill="none" height="6.042" rx="0.6" width="85.14" x="13.9" y="7.942"/></g><g><rect fill="none" height="6.642" rx="0.8" width="85.74" x="13.6" y="7.642"/></g><text data-el="row1" fill="#C4C4BD" font-family="'Inter', 'Segoe UI', system-ui, sans-serif" font-size="3.1" x="109.795" y="12.16">khai triển lập phương</text></g><g class="cv-alg-row"><text data-el="r2-e39" fill="#1A1A17" font-family="'KaTeX_Size1', serif" font-size="5" x="7.065" y="20.734">(</text><text data-el="r2-e13" fill="#1A1A17" font-family="'KaTeX_Main', 'Latin Modern Math', serif" font-size="5" x="9.355" y="20.734">(</text><text data-el="r2-e1" fill="#1A1A17" font-family="'KaTeX_Main', 'Latin Modern Math', serif" font-size="5" font-style="italic" x="11.3" y="20.884">u</text><text data-el="r2-e2" fill="#1A1A17" font-family="'KaTeX_Main', 'Latin Modern Math', serif" font-size="5" font-style="italic" x="13.985" y="20.884">p</text><text data-el="r2-e13" fill="#1A1A17" font-family="'KaTeX_Main', 'Latin Modern Math', serif" font-size="5" x="16.54" y="20.734">)</text><text data-el="r2-e12" fill="#1A1A17" font-family="'KaTeX_Main', 'Latin Modern Math', serif" font-size="3.4" x="18.485" y="19.09">3</text><text data-el="r2-e36" fill="#1A1A17" font-family="'KaTeX_Main', 'Latin Modern Math', serif" font-size="5" x="21.285" y="20.884">+</text><text data-el="r2-e14" fill="#1A1A17" font-family="'KaTeX_Main', 'Latin Modern Math', serif" font-size="5" x="26.275" y="20.884">3</text><text data-el="r2-e19" fill="#1A1A17" font-family="'KaTeX_Main', 'Latin Modern Math', serif" font-size="5" x="28.775" y="20.734">(</text><text data-el="r2-e16" fill="#1A1A17" font-family="'KaTeX_Main', 'Latin Modern Math', serif" font-size="5" font-style="italic" x="30.72" y="20.884">u</text><text data-el="r2-e17" fill="#1A1A17" font-family="'KaTeX_Main', 'Latin Modern Math', serif" font-size="5" font-style="italic" x="33.405" y="20.884">p</text><text data-el="r2-e19" fill="#1A1A17" font-family="'KaTeX_Main', 'Latin Modern Math', serif" font-size="5" x="35.96" y="20.734">)</text><text data-el="r2-e18" fill="#1A1A17" font-family="'KaTeX_Main', 'Latin Modern Math', serif" font-size="3.4" x="37.905" y="19.09">2</text><text data-el="r2-e21" fill="#1A1A17" font-family="'KaTeX_Main', 'Latin Modern Math', serif" font-size="5" font-style="italic" x="39.605" y="20.884">v</text><text data-el="r2-e22" fill="#1A1A17" font-family="'KaTeX_Main', 'Latin Modern Math', serif" font-size="5" font-style="italic" x="41.905" y="20.884">q</text><text data-el="r2-e36" fill="#1A1A17" font-family="'KaTeX_Main', 'Latin Modern Math', serif" font-size="5" x="45.305" y="20.884">+</text><text data-el="r2-e24" fill="#1A1A17" font-family="'KaTeX_Main', 'Latin Modern Math', serif" font-size="5" x="50.295" y="20.884">3</text><text data-el="r2-e26" fill="#1A1A17" font-family="'KaTeX_Main', 'Latin Modern Math', serif" font-size="5" font-style="italic" x="52.795" y="20.884">u</text><text data-el="r2-e27" fill="#1A1A17" font-family="'KaTeX_Main', 'Latin Modern Math', serif" font-size="5" font-style="italic" x="55.48" y="20.884">p</text><text data-el="r2-e32" fill="#1A1A17" font-family="'KaTeX_Main', 'Latin Modern Math', serif" font-size="5" x="58.035" y="20.734">(</text><text data-el="r2-e29" fill="#1A1A17" font-family="'KaTeX_Main', 'Latin Modern Math', serif" font-size="5" font-style="italic" x="59.98" y="20.884">v</text><text data-el="r2-e30" fill="#1A1A17" font-family="'KaTeX_Main', 'Latin Modern Math', serif" font-size="5" font-style="italic" x="62.28" y="20.884">q</text><text data-el="r2-e32" fill="#1A1A17" font-family="'KaTeX_Main', 'Latin Modern Math', serif" font-size="5" x="64.58" y="20.734">)</text><text data-el="r2-e31" fill="#1A1A17" font-family="'KaTeX_Main', 'Latin Modern Math', serif" font-size="3.4" x="66.525" y="19.09">2</text><text data-el="r2-e36" fill="#1A1A17" font-family="'KaTeX_Main', 'Latin Modern Math', serif" font-size="5" x="69.325" y="20.884">+</text><text data-el="r2-e35" fill="#1A1A17" font-family="'KaTeX_Main', 'Latin Modern Math', serif" font-size="5" x="74.315" y="20.734">(</text><text data-el="r2-e4" fill="#1A1A17" font-family="'KaTeX_Main', 'Latin Modern Math', serif" font-size="5" font-style="italic" x="76.26" y="20.884">v</text><text data-el="r2-e5" fill="#1A1A17" font-family="'KaTeX_Main', 'Latin Modern Math', serif" font-size="5" font-style="italic" x="78.56" y="20.884">q</text><text data-el="r2-e35" fill="#1A1A17" font-family="'KaTeX_Main', 'Latin Modern Math', serif" font-size="5" x="80.86" y="20.734">)</text><text data-el="r2-e34" fill="#1A1A17" font-family="'KaTeX_Main', 'Latin Modern Math', serif" font-size="3.4" x="82.805" y="19.09">3</text><text data-el="r2-e39" fill="#1A1A17" font-family="'KaTeX_Size1', serif" font-size="5" x="84.505" y="20.734">)</text><text data-el="r2-e37" fill="#1A1A17" font-family="'KaTeX_Main', 'Latin Modern Math', serif" font-size="5" font-style="italic" x="86.795" y="20.884">a</text><text data-el="r2-e11" fill="#1A1A17" font-family="'KaTeX_Main', 'Latin Modern Math', serif" font-size="5" x="90.85" y="20.884">=</text><text data-el="r2-e38" fill="#1A1A17" font-family="'KaTeX_Main', 'Latin Modern Math', serif" font-size="5" font-style="italic" x="96.24" y="20.884">a</text><g><rect fill="none" height="5.4" rx="0.6" width="3.285" x="11" y="16.984"/></g><g><rect fill="none" height="5.4" rx="0.6" width="3.155" x="13.685" y="16.984"/></g><g><rect fill="none" height="5.4" rx="0.6" width="5.84" x="11" y="16.984"/></g><g><rect fill="none" height="3.864" rx="0.6" width="2.3" x="18.185" y="16.342"/></g><g><rect fill="none" height="6.042" rx="0.6" width="11.43" x="9.055" y="16.342"/></g><g><rect fill="none" height="5.4" rx="0.6" width="3.1" x="25.975" y="16.984"/></g><g><rect fill="none" height="5.4" rx="0.6" width="3.285" x="30.42" y="16.984"/></g><g><rect fill="none" height="5.4" rx="0.6" width="3.155" x="33.105" y="16.984"/></g><g><rect fill="none" height="5.4" rx="0.6" width="5.84" x="30.42" y="16.984"/></g><g><rect fill="none" height="3.864" rx="0.6" width="2.3" x="37.605" y="16.342"/></g><g><rect fill="none" height="6.042" rx="0.6" width="11.43" x="28.475" y="16.342"/></g><g><rect fill="none" height="5.4" rx="0.6" width="2.9" x="39.305" y="16.984"/></g><g><rect fill="none" height="5.4" rx="0.6" width="2.9" x="41.605" y="16.984"/></g><g><rect fill="none" height="6.042" rx="0.6" width="18.53" x="25.975" y="16.342"/></g><g><rect fill="none" height="5.4" rx="0.6" width="3.1" x="49.995" y="16.984"/></g><g><rect fill="none" height="5.4" rx="0.6" width="3.285" x="52.495" y="16.984"/></g><g><rect fill="none" height="5.4" rx="0.6" width="3.155" x="55.18" y="16.984"/></g><g><rect fill="none" height="5.4" rx="0.6" width="2.9" x="59.68" y="16.984"/></g><g><rect fill="none" height="5.4" rx="0.6" width="2.9" x="61.98" y="16.984"/></g><g><rect fill="none" height="5.4" rx="0.6" width="5.2" x="59.68" y="16.984"/></g><g><rect fill="none" height="3.864" rx="0.6" width="2.3" x="66.225" y="16.342"/></g><g><rect fill="none" height="6.042" rx="0.6" width="10.79" x="57.735" y="16.342"/></g><g><rect fill="none" height="6.042" rx="0.6" width="18.53" x="49.995" y="16.342"/></g><g><rect fill="none" height="5.4" rx="0.6" width="2.9" x="75.96" y="16.984"/></g><g><rect fill="none" height="5.4" rx="0.6" width="2.9" x="78.26" y="16.984"/></g><g><rect fill="none" height="5.4" rx="0.6" width="5.2" x="75.96" y="16.984"/></g><g><rect fill="none" height="3.864" rx="0.6" width="2.3" x="82.505" y="16.342"/></g><g><rect fill="none" height="6.042" rx="0.6" width="10.79" x="74.015" y="16.342"/></g><g><rect fill="none" height="6.042" rx="0.6" width="75.75" x="9.055" y="16.342"/></g><g><rect fill="none" height="5.4" rx="0.6" width="3.155" x="86.495" y="16.984"/></g><g><rect fill="none" height="6.595" rx="0.6" width="82.885" x="6.765" y="16.184"/></g><g><rect fill="none" height="5.4" rx="0.6" width="3.155" x="95.94" y="16.984"/></g><g><rect fill="none" height="5.4" rx="0.6" width="3.155" x="95.94" y="16.984"/></g><g><rect fill="none" height="6.595" rx="0.6" width="92.33" x="6.765" y="16.184"/></g><g><rect fill="none" height="7.195" rx="0.8" width="92.93" x="6.465" y="15.884"/></g><text data-el="row2" fill="#C4C4BD" font-family="'Inter', 'Segoe UI', system-ui, sans-serif" font-size="3.1" x="109.795" y="20.8">nhân hai vế</text></g><g class="cv-alg-row"><text data-el="r3-e37" fill="#1A1A17" font-family="'KaTeX_Main', 'Latin Modern Math', serif" font-size="5" font-style="italic" x="0" y="29.521">a</text><text data-el="r3-e13" fill="#1A1A17" font-family="'KaTeX_Main', 'Latin Modern Math', serif" font-size="5" x="2.555" y="29.371">(</text><text data-el="r3-e1" fill="#1A1A17" font-family="'KaTeX_Main', 'Latin Modern Math', serif" font-size="5" font-style="italic" x="4.5" y="29.521">u</text><text data-el="r3-e2" fill="#1A1A17" font-family="'KaTeX_Main', 'Latin Modern Math', serif" font-size="5" font-style="italic" x="7.185" y="29.521">p</text><text data-el="r3-e13" fill="#1A1A17" font-family="'KaTeX_Main', 'Latin Modern Math', serif" font-size="5" x="9.74" y="29.371">)</text><text data-el="r3-e12" fill="#1A1A17" font-family="'KaTeX_Main', 'Latin Modern Math', serif" font-size="3.4" x="11.685" y="27.727">3</text><text data-el="r3-e48" fill="#1A1A17" font-family="'KaTeX_Main', 'Latin Modern Math', serif" font-size="5" x="14.485" y="29.521">+</text><text data-el="r3-e42" fill="#1A1A17" font-family="'KaTeX_Main', 'Latin Modern Math', serif" font-size="5" font-style="italic" x="19.475" y="29.521">a</text><text data-el="r3-e43" fill="#1A1A17" font-family="'KaTeX_Main', 'Latin Modern Math', serif" font-size="5" x="22.33" y="29.521">⋅</text><text data-el="r3-e14" fill="#1A1A17" font-family="'KaTeX_Main', 'Latin Modern Math', serif" font-size="5" x="24.02" y="29.521">3</text><text data-el="r3-e19" fill="#1A1A17" font-family="'KaTeX_Main', 'Latin Modern Math', serif" font-size="5" x="26.52" y="29.371">(</text><text data-el="r3-e16" fill="#1A1A17" font-family="'KaTeX_Main', 'Latin Modern Math', serif" font-size="5" font-style="italic" x="28.465" y="29.521">u</text><text data-el="r3-e17" fill="#1A1A17" font-family="'KaTeX_Main', 'Latin Modern Math', serif" font-size="5" font-style="italic" x="31.15" y="29.521">p</text><text data-el="r3-e19" fill="#1A1A17" font-family="'KaTeX_Main', 'Latin Modern Math', serif" font-size="5" x="33.705" y="29.371">)</text><text data-el="r3-e18" fill="#1A1A17" font-family="'KaTeX_Main', 'Latin Modern Math', serif" font-size="3.4" x="35.65" y="27.727">2</text><text data-el="r3-e21" fill="#1A1A17" font-family="'KaTeX_Main', 'Latin Modern Math', serif" font-size="5" font-style="italic" x="37.35" y="29.521">v</text><text data-el="r3-e22" fill="#1A1A17" font-family="'KaTeX_Main', 'Latin Modern Math', serif" font-size="5" font-style="italic" x="39.65" y="29.521">q</text><text data-el="r3-e48" fill="#1A1A17" font-family="'KaTeX_Main', 'Latin Modern Math', serif" font-size="5" x="43.05" y="29.521">+</text><text data-el="r3-e44" fill="#1A1A17" font-family="'KaTeX_Main', 'Latin Modern Math', serif" font-size="5" font-style="italic" x="48.04" y="29.521">a</text><text data-el="r3-e45" fill="#1A1A17" font-family="'KaTeX_Main', 'Latin Modern Math', serif" font-size="5" x="50.895" y="29.521">⋅</text><text data-el="r3-e24" fill="#1A1A17" font-family="'KaTeX_Main', 'Latin Modern Math', serif" font-size="5" x="52.585" y="29.521">3</text><text data-el="r3-e26" fill="#1A1A17" font-family="'KaTeX_Main', 'Latin Modern Math', serif" font-size="5" font-style="italic" x="55.085" y="29.521">u</text><text data-el="r3-e27" fill="#1A1A17" font-family="'KaTeX_Main', 'Latin Modern Math', serif" font-size="5" font-style="italic" x="57.77" y="29.521">p</text><text data-el="r3-e32" fill="#1A1A17" font-family="'KaTeX_Main', 'Latin Modern Math', serif" font-size="5" x="60.325" y="29.371">(</text><text data-el="r3-e29" fill="#1A1A17" font-family="'KaTeX_Main', 'Latin Modern Math', serif" font-size="5" font-style="italic" x="62.27" y="29.521">v</text><text data-el="r3-e30" fill="#1A1A17" font-family="'KaTeX_Main', 'Latin Modern Math', serif" font-size="5" font-style="italic" x="64.57" y="29.521">q</text><text data-el="r3-e32" fill="#1A1A17" font-family="'KaTeX_Main', 'Latin Modern Math', serif" font-size="5" x="66.87" y="29.371">)</text><text data-el="r3-e31" fill="#1A1A17" font-family="'KaTeX_Main', 'Latin Modern Math', serif" font-size="3.4" x="68.815" y="27.727">2</text><text data-el="r3-e48" fill="#1A1A17" font-family="'KaTeX_Main', 'Latin Modern Math', serif" font-size="5" x="71.615" y="29.521">+</text><text data-el="r3-e46" fill="#1A1A17" font-family="'KaTeX_Main', 'Latin Modern Math', serif" font-size="5" font-style="italic" x="76.605" y="29.521">a</text><text data-el="r3-e35" fill="#1A1A17" font-family="'KaTeX_Main', 'Latin Modern Math', serif" font-size="5" x="79.16" y="29.371">(</text><text data-el="r3-e4" fill="#1A1A17" font-family="'KaTeX_Main', 'Latin Modern Math', serif" font-size="5" font-style="italic" x="81.105" y="29.521">v</text><text data-el="r3-e5" fill="#1A1A17" font-family="'KaTeX_Main', 'Latin Modern Math', serif" font-size="5" font-style="italic" x="83.405" y="29.521">q</text><text data-el="r3-e35" fill="#1A1A17" font-family="'KaTeX_Main', 'Latin Modern Math', serif" font-size="5" x="85.705" y="29.371">)</text><text data-el="r3-e34" fill="#1A1A17" font-family="'KaTeX_Main', 'Latin Modern Math', serif" font-size="3.4" x="87.65" y="27.727">3</text><text data-el="r3-e11" fill="#1A1A17" font-family="'KaTeX_Main', 'Latin Modern Math', serif" font-size="5" x="90.85" y="29.521">=</text><text data-el="r3-e38" fill="#1A1A17" font-family="'KaTeX_Main', 'Latin Modern Math', serif" font-size="5" font-style="italic" x="96.24" y="29.521">a</text><g><rect fill="none" height="5.4" rx="0.6" width="3.155" x="-0.3" y="25.621"/></g><g><rect fill="none" height="5.4" rx="0.6" width="3.285" x="4.2" y="25.621"/></g><g><rect fill="none" height="5.4" rx="0.6" width="3.155" x="6.885" y="25.621"/></g><g><rect fill="none" height="5.4" rx="0.6" width="5.84" x="4.2" y="25.621"/></g><g><rect fill="none" height="3.864" rx="0.6" width="2.3" x="11.385" y="24.979"/></g><g><rect fill="none" height="6.042" rx="0.6" width="11.43" x="2.255" y="24.979"/></g><g><rect fill="none" height="6.042" rx="0.6" width="13.985" x="-0.3" y="24.979"/></g><g><rect fill="none" height="5.4" rx="0.6" width="3.155" x="19.175" y="25.621"/></g><g><rect fill="none" height="5.4" rx="0.6" width="3.1" x="23.72" y="25.621"/></g><g><rect fill="none" height="5.4" rx="0.6" width="3.285" x="28.165" y="25.621"/></g><g><rect fill="none" height="5.4" rx="0.6" width="3.155" x="30.85" y="25.621"/></g><g><rect fill="none" height="5.4" rx="0.6" width="5.84" x="28.165" y="25.621"/></g><g><rect fill="none" height="3.864" rx="0.6" width="2.3" x="35.35" y="24.979"/></g><g><rect fill="none" height="6.042" rx="0.6" width="11.43" x="26.22" y="24.979"/></g><g><rect fill="none" height="5.4" rx="0.6" width="2.9" x="37.05" y="25.621"/></g><g><rect fill="none" height="5.4" rx="0.6" width="2.9" x="39.35" y="25.621"/></g><g><rect fill="none" height="6.042" rx="0.6" width="23.075" x="19.175" y="24.979"/></g><g><rect fill="none" height="5.4" rx="0.6" width="3.155" x="47.74" y="25.621"/></g><g><rect fill="none" height="5.4" rx="0.6" width="3.1" x="52.285" y="25.621"/></g><g><rect fill="none" height="5.4" rx="0.6" width="3.285" x="54.785" y="25.621"/></g><g><rect fill="none" height="5.4" rx="0.6" width="3.155" x="57.47" y="25.621"/></g><g><rect fill="none" height="5.4" rx="0.6" width="2.9" x="61.97" y="25.621"/></g><g><rect fill="none" height="5.4" rx="0.6" width="2.9" x="64.27" y="25.621"/></g><g><rect fill="none" height="5.4" rx="0.6" width="5.2" x="61.97" y="25.621"/></g><g><rect fill="none" height="3.864" rx="0.6" width="2.3" x="68.515" y="24.979"/></g><g><rect fill="none" height="6.042" rx="0.6" width="10.79" x="60.025" y="24.979"/></g><g><rect fill="none" height="6.042" rx="0.6" width="23.075" x="47.74" y="24.979"/></g><g><rect fill="none" height="5.4" rx="0.6" width="3.155" x="76.305" y="25.621"/></g><g><rect fill="none" height="5.4" rx="0.6" width="2.9" x="80.805" y="25.621"/></g><g><rect fill="none" height="5.4" rx="0.6" width="2.9" x="83.105" y="25.621"/></g><g><rect fill="none" height="5.4" rx="0.6" width="5.2" x="80.805" y="25.621"/></g><g><rect fill="none" height="3.864" rx="0.6" width="2.3" x="87.35" y="24.979"/></g><g><rect fill="none" height="6.042" rx="0.6" width="10.79" x="78.86" y="24.979"/></g><g><rect fill="none" height="6.042" rx="0.6" width="13.345" x="76.305" y="24.979"/></g><g><rect fill="none" height="6.042" rx="0.6" width="89.95" x="-0.3" y="24.979"/></g><g><rect fill="none" height="5.4" rx="0.6" width="3.155" x="95.94" y="25.621"/></g><g><rect fill="none" height="5.4" rx="0.6" width="3.155" x="95.94" y="25.621"/></g><g><rect fill="none" height="6.042" rx="0.6" width="99.395" x="-0.3" y="24.979"/></g><g><rect fill="none" height="6.642" rx="0.8" width="99.995" x="-0.6" y="24.679"/></g><text data-el="row3" fill="#C4C4BD" font-family="'Inter', 'Segoe UI', system-ui, sans-serif" font-size="3.1" x="109.795" y="29.197">nhân phân phối</text></g><text fill="#C5221F" font-family="'Inter', 'Segoe UI', system-ui, sans-serif" font-size="3" x="0" y="35.921">với a ≠ 0</text></g></svg>