<svg viewBox="-3 -3 89.896 41.801" xmlns="http://www.w3.org/2000/svg"><rect fill="#FDFDFC" height="41.801" width="89.896" x="-3" y="-3"/><defs><pattern height="8" id="cv-pat-1" patternUnits="userSpaceOnUse" width="8"><rect fill="#0072B2" height="8" width="8"/></pattern><pattern height="8" id="cv-pat-2" patternUnits="userSpaceOnUse" width="8"><rect fill="#9ED9F5" height="8" width="8"/><line stroke="#3E8BB5" stroke-width="1.2" x1="0" x2="8" y1="8" y2="0"/><line stroke="#3E8BB5" stroke-width="1.2" x1="-1" x2="1" y1="1" y2="-1"/><line stroke="#3E8BB5" stroke-width="1.2" x1="7" x2="9" y1="9" y2="7"/></pattern><pattern height="8" id="cv-pat-3" patternUnits="userSpaceOnUse" width="8"><rect fill="#D55E00" height="8" width="8"/><line stroke="#8A3D00" stroke-width="1.2" x1="0" x2="8" y1="0" y2="8"/><line stroke="#8A3D00" stroke-width="1.2" x1="-1" x2="1" y1="7" y2="9"/><line stroke="#8A3D00" stroke-width="1.2" x1="7" x2="9" y1="-1" y2="1"/></pattern><pattern height="8" id="cv-pat-4" patternUnits="userSpaceOnUse" width="8"><rect fill="#009E73" height="8" width="8"/><circle cx="4" cy="4" fill="#006147" r="1.4"/></pattern><pattern height="8" id="cv-pat-5" patternUnits="userSpaceOnUse" width="8"><rect fill="#E69F00" height="8" width="8"/><line stroke="#9A6B00" stroke-width="1.2" x1="0" x2="8" y1="4" y2="4"/><line stroke="#9A6B00" stroke-width="1.2" x1="4" x2="4" y1="0" y2="8"/></pattern><pattern height="8" id="cv-pat-6" patternUnits="userSpaceOnUse" width="8"><rect fill="#CC79A7" height="8" width="8"/><line stroke="#8A4E70" stroke-width="1.2" x1="0" x2="8" y1="4" y2="4"/></pattern><pattern height="8" id="cv-pat-7" patternUnits="userSpaceOnUse" width="8"><rect fill="#F0E442" height="8" width="8"/><line stroke="#9C9400" stroke-width="1.2" x1="4" x2="4" y1="0" y2="8"/></pattern><pattern height="8" id="cv-pat-8" patternUnits="userSpaceOnUse" width="8"><rect fill="#3A3A3A" height="8" width="8"/><line stroke="#000000" stroke-width="1.2" x1="0" x2="8" y1="0" y2="8"/><line stroke="#000000" stroke-width="1.2" x1="0" x2="8" y1="8" y2="0"/></pattern></defs><g class="cv-algebra"><g class="cv-alg-row"><text data-el="r0-e5" fill="#1A1A17" font-family="'KaTeX_Main', 'Latin Modern Math', serif" font-size="4.1" x="2.706" y="3.508">(</text><text data-el="r0-e1" fill="#1A1A17" font-family="'KaTeX_Main', 'Latin Modern Math', serif" font-size="4.1" font-style="italic" x="4.301" y="3.631">a</text><text data-el="r0-e3" fill="#1A1A17" font-family="'KaTeX_Main', 'Latin Modern Math', serif" font-size="4.1" x="7.298" y="3.631">+</text><text data-el="r0-e2" fill="#1A1A17" font-family="'KaTeX_Main', 'Latin Modern Math', serif" font-size="4.1" font-style="italic" x="11.39" y="3.631">b</text><text data-el="r0-e5" fill="#1A1A17" font-family="'KaTeX_Main', 'Latin Modern Math', serif" font-size="4.1" x="13.276" y="3.508">)</text><text data-el="r0-e4" fill="#1A1A17" font-family="'KaTeX_Main', 'Latin Modern Math', serif" font-size="3" x="14.871" y="2.16">2</text><text data-el="r0-e6" fill="#1A1A17" font-family="'KaTeX_Main', 'Latin Modern Math', serif" font-size="4.1" font-style="italic" x="5.094" y="9.367">x</text><text data-el="r0-e8" fill="#1A1A17" font-family="'KaTeX_Main', 'Latin Modern Math', serif" font-size="4.1" x="7.899" y="9.367">+</text><text data-el="r0-e7" fill="#1A1A17" font-family="'KaTeX_Main', 'Latin Modern Math', serif" font-size="4.1" font-style="italic" x="11.991" y="9.367">y</text><text data-el="r0-e11" fill="#1A1A17" font-family="'KaTeX_Main', 'Latin Modern Math', serif" font-size="5" x="18.971" y="6.915">≥</text><text data-el="r0-e10" fill="#1A1A17" font-family="'KaTeX_Main', 'Latin Modern Math', serif" font-size="5" x="24.361" y="6.915">1</text><line data-el="r0-e9" stroke="#1A1A17" stroke-linecap="round" stroke-width="0.375" x1="1.606" x2="17.471" y1="5.515" y2="5.515"/><g><rect fill="none" height="4.536" rx="0.6" width="2.695" x="4.001" y="0.379"/></g><g><rect fill="none" height="4.536" rx="0.6" width="2.486" x="11.09" y="0.379"/></g><g><rect fill="none" height="4.536" rx="0.6" width="9.575" x="4.001" y="0.379"/></g><g><rect fill="none" height="3.48" rx="0.6" width="2.1" x="14.571" y="-0.3"/></g><g><rect fill="none" height="5.215" rx="0.6" width="14.265" x="2.406" y="-0.3"/></g><g><rect fill="none" height="4.536" rx="0.6" width="2.502" x="4.794" y="6.115"/></g><g><rect fill="none" height="4.536" rx="0.6" width="2.593" x="11.691" y="6.115"/></g><g><rect fill="none" height="4.536" rx="0.6" width="9.489" x="4.794" y="6.115"/></g><g><rect fill="none" height="10.951" rx="0.6" width="16.465" x="1.306" y="-0.3"/></g><g><rect fill="none" height="5.4" rx="0.6" width="3.1" x="24.061" y="3.015"/></g><g><rect fill="none" height="10.951" rx="0.6" width="25.855" x="1.306" y="-0.3"/></g><g><rect fill="none" height="11.551" rx="0.8" width="26.455" x="1.006" y="-0.6"/></g></g><g class="cv-alg-row"><text data-el="r1-e12" fill="#1A1A17" font-family="'KaTeX_Main', 'Latin Modern Math', serif" font-size="4.1" font-style="italic" x="1.1" y="16.681">a</text><text data-el="r1-e13" fill="#1A1A17" font-family="'KaTeX_Main', 'Latin Modern Math', serif" font-size="3" x="3.195" y="15.311">2</text><text data-el="r1-e15" fill="#1A1A17" font-family="'KaTeX_Main', 'Latin Modern Math', serif" font-size="4.1" font-style="italic" x="1.946" y="22.417">x</text><text data-el="r1-e22" fill="#1A1A17" font-family="'KaTeX_Main', 'Latin Modern Math', serif" font-size="5" x="6.895" y="19.965">+</text><text data-el="r1-e17" fill="#1A1A17" font-family="'KaTeX_Main', 'Latin Modern Math', serif" font-size="4.1" font-style="italic" x="12.985" y="16.681">b</text><text data-el="r1-e18" fill="#1A1A17" font-family="'KaTeX_Main', 'Latin Modern Math', serif" font-size="3" x="14.871" y="15.311">2</text><text data-el="r1-e20" fill="#1A1A17" font-family="'KaTeX_Main', 'Latin Modern Math', serif" font-size="4.1" font-style="italic" x="13.682" y="22.417">y</text><text data-el="r1-e11" fill="#1A1A17" font-family="'KaTeX_Main', 'Latin Modern Math', serif" font-size="5" x="18.971" y="19.965">≥</text><text data-el="r1-e10" fill="#1A1A17" font-family="'KaTeX_Main', 'Latin Modern Math', serif" font-size="5" x="24.361" y="19.965">1</text><line data-el="r1-e16" stroke="#1A1A17" stroke-linecap="round" stroke-width="0.375" x1="0" x2="5.795" y1="18.565" y2="18.565"/><line data-el="r1-e21" stroke="#1A1A17" stroke-linecap="round" stroke-width="0.375" x1="11.885" x2="17.471" y1="18.565" y2="18.565"/><g><rect fill="none" height="4.536" rx="0.6" width="2.695" x="0.8" y="13.429"/></g><g><rect fill="none" height="3.48" rx="0.6" width="2.1" x="2.895" y="12.851"/></g><g><rect fill="none" height="5.113" rx="0.6" width="4.195" x="0.8" y="12.851"/></g><g><rect fill="none" height="4.536" rx="0.6" width="2.502" x="1.646" y="19.165"/></g><g><rect fill="none" height="10.849" rx="0.6" width="6.395" x="-0.3" y="12.851"/></g><g><rect fill="none" height="4.536" rx="0.6" width="2.486" x="12.685" y="13.429"/></g><g><rect fill="none" height="3.48" rx="0.6" width="2.1" x="14.571" y="12.851"/></g><g><rect fill="none" height="5.113" rx="0.6" width="3.986" x="12.685" y="12.851"/></g><g><rect fill="none" height="4.536" rx="0.6" width="2.593" x="13.382" y="19.165"/></g><g><rect fill="none" height="10.849" rx="0.6" width="6.186" x="11.585" y="12.851"/></g><g><rect fill="none" height="10.849" rx="0.6" width="18.071" x="-0.3" y="12.851"/></g><g><rect fill="none" height="5.4" rx="0.6" width="3.1" x="24.061" y="16.065"/></g><g><rect fill="none" height="10.849" rx="0.6" width="27.461" x="-0.3" y="12.851"/></g><g><rect fill="none" height="11.449" rx="0.8" width="28.061" x="-0.6" y="12.551"/></g><text data-el="row1" fill="#C4C4BD" font-family="'Inter', 'Segoe UI', system-ui, sans-serif" font-size="3.1" x="37.861" y="20.53">Cauchy–Schwarz (dạng Engel)</text></g><text fill="#C5221F" font-family="'Inter', 'Segoe UI', system-ui, sans-serif" font-size="3" x="0" y="28.601">với x &gt; 0, y &gt; 0</text><text fill="#C5221F" font-family="'Inter', 'Segoe UI', system-ui, sans-serif" font-size="3" x="0" y="33.401">bước một chiều — không suy ngược được</text></g></svg>