<svg viewBox="-3 -3 102.45 90.086" xmlns="http://www.w3.org/2000/svg"><rect fill="#FDFDFC" height="90.086" width="102.45" x="-3" y="-3"/><defs><pattern height="8" id="cv-pat-1" patternUnits="userSpaceOnUse" width="8"><rect fill="#0072B2" height="8" width="8"/></pattern><pattern height="8" id="cv-pat-2" patternUnits="userSpaceOnUse" width="8"><rect fill="#9ED9F5" height="8" width="8"/><line stroke="#3E8BB5" stroke-width="1.2" x1="0" x2="8" y1="8" y2="0"/><line stroke="#3E8BB5" stroke-width="1.2" x1="-1" x2="1" y1="1" y2="-1"/><line stroke="#3E8BB5" stroke-width="1.2" x1="7" x2="9" y1="9" y2="7"/></pattern><pattern height="8" id="cv-pat-3" patternUnits="userSpaceOnUse" width="8"><rect fill="#D55E00" height="8" width="8"/><line stroke="#8A3D00" stroke-width="1.2" x1="0" x2="8" y1="0" y2="8"/><line stroke="#8A3D00" stroke-width="1.2" x1="-1" x2="1" y1="7" y2="9"/><line stroke="#8A3D00" stroke-width="1.2" x1="7" x2="9" y1="-1" y2="1"/></pattern><pattern height="8" id="cv-pat-4" patternUnits="userSpaceOnUse" width="8"><rect fill="#009E73" height="8" width="8"/><circle cx="4" cy="4" fill="#006147" r="1.4"/></pattern><pattern height="8" id="cv-pat-5" patternUnits="userSpaceOnUse" width="8"><rect fill="#E69F00" height="8" width="8"/><line stroke="#9A6B00" stroke-width="1.2" x1="0" x2="8" y1="4" y2="4"/><line stroke="#9A6B00" stroke-width="1.2" x1="4" x2="4" y1="0" y2="8"/></pattern><pattern height="8" id="cv-pat-6" patternUnits="userSpaceOnUse" width="8"><rect fill="#CC79A7" height="8" width="8"/><line stroke="#8A4E70" stroke-width="1.2" x1="0" x2="8" y1="4" y2="4"/></pattern><pattern height="8" id="cv-pat-7" patternUnits="userSpaceOnUse" width="8"><rect fill="#F0E442" height="8" width="8"/><line stroke="#9C9400" stroke-width="1.2" x1="4" x2="4" y1="0" y2="8"/></pattern><pattern height="8" id="cv-pat-8" patternUnits="userSpaceOnUse" width="8"><rect fill="#3A3A3A" height="8" width="8"/><line stroke="#000000" stroke-width="1.2" x1="0" x2="8" y1="0" y2="8"/><line stroke="#000000" stroke-width="1.2" x1="0" x2="8" y1="8" y2="0"/></pattern></defs><g class="cv-algebra"><g class="cv-alg-row"><text data-el="r0-e1" fill="#1A1A17" font-family="'KaTeX_Main', 'Latin Modern Math', serif" font-size="4.1" x="5.897" y="2.952">1</text><text data-el="r0-e2" fill="#1A1A17" font-family="'KaTeX_Main', 'Latin Modern Math', serif" font-size="4.1" x="1.1" y="10.082">2</text><text data-el="r0-e5" fill="#1A1A17" font-family="'KaTeX_Main', 'Latin Modern Math', serif" font-size="4.1" x="4.052" y="10.082">+</text><text data-el="r0-e3" fill="#1A1A17" font-family="'KaTeX_Main', 'Latin Modern Math', serif" font-size="4.1" x="10.038" y="10.082">3</text><line data-el="r0-e4" stroke="#1A1A17" stroke-linecap="round" stroke-width="0.307" x1="10.038" x2="12.744" y1="5.736" y2="5.736"/><line data-el="r0-e6" stroke="#1A1A17" stroke-linecap="round" stroke-width="0.375" x1="0" x2="13.844" y1="4.836" y2="4.836"/><path d="M7.496 9.6L8.259 10.32L9.072 11.066L10.038 5.736" data-el="r0-e4" fill="none" stroke="#1A1A17" stroke-linecap="round" stroke-linejoin="round" stroke-width="0.307"/><g><rect fill="none" height="4.536" rx="0.6" width="2.65" x="5.597" y="-0.3"/></g><g><rect fill="none" height="4.536" rx="0.6" width="2.65" x="0.8" y="6.83"/></g><g><rect fill="none" height="4.536" rx="0.6" width="2.65" x="9.738" y="6.83"/></g><g><rect fill="none" height="5.93" rx="0.6" width="5.848" x="7.196" y="5.436"/></g><g><rect fill="none" height="5.93" rx="0.6" width="12.244" x="0.8" y="5.436"/></g><g><rect fill="none" height="11.666" rx="0.6" width="14.444" x="-0.3" y="-0.3"/></g><g><rect fill="none" height="12.266" rx="0.8" width="15.044" x="-0.6" y="-0.6"/></g></g><g class="cv-alg-row"><text data-el="r1-e17" fill="#1A1A17" font-family="'KaTeX_Main', 'Latin Modern Math', serif" font-size="5.552" x="8.699" y="17.864">(</text><text data-el="r1-e7" fill="#1A1A17" font-family="'KaTeX_Main', 'Latin Modern Math', serif" font-size="4.1" x="10.475" y="18.212">2</text><text data-el="r1-e11" fill="#1A1A17" font-family="'KaTeX_Main', 'Latin Modern Math', serif" font-size="4.1" x="13.427" y="18.212">−</text><text data-el="r1-e3" fill="#1A1A17" font-family="'KaTeX_Main', 'Latin Modern Math', serif" font-size="4.1" x="19.413" y="18.212">3</text><text data-el="r1-e17" fill="#1A1A17" font-family="'KaTeX_Main', 'Latin Modern Math', serif" font-size="5.552" x="22.119" y="17.864">)</text><text data-el="r1-e18" fill="#1A1A17" font-family="'KaTeX_Main', 'Latin Modern Math', serif" font-size="5.552" x="1.1" y="25.342">(</text><text data-el="r1-e2" fill="#1A1A17" font-family="'KaTeX_Main', 'Latin Modern Math', serif" font-size="4.1" x="2.877" y="25.69">2</text><text data-el="r1-e5" fill="#1A1A17" font-family="'KaTeX_Main', 'Latin Modern Math', serif" font-size="4.1" x="5.829" y="25.69">+</text><text data-el="r1-e3" fill="#1A1A17" font-family="'KaTeX_Main', 'Latin Modern Math', serif" font-size="4.1" x="11.815" y="25.69">3</text><text data-el="r1-e18" fill="#1A1A17" font-family="'KaTeX_Main', 'Latin Modern Math', serif" font-size="5.552" x="14.521" y="25.342">)</text><text data-el="r1-e18" fill="#1A1A17" font-family="'KaTeX_Main', 'Latin Modern Math', serif" font-size="5.552" x="16.297" y="25.342">(</text><text data-el="r1-e12" fill="#1A1A17" font-family="'KaTeX_Main', 'Latin Modern Math', serif" font-size="4.1" x="18.074" y="25.69">2</text><text data-el="r1-e16" fill="#1A1A17" font-family="'KaTeX_Main', 'Latin Modern Math', serif" font-size="4.1" x="21.026" y="25.69">−</text><text data-el="r1-e3" fill="#1A1A17" font-family="'KaTeX_Main', 'Latin Modern Math', serif" font-size="4.1" x="27.012" y="25.69">3</text><text data-el="r1-e18" fill="#1A1A17" font-family="'KaTeX_Main', 'Latin Modern Math', serif" font-size="5.552" x="29.718" y="25.342">)</text><line data-el="r1-e8" stroke="#1A1A17" stroke-linecap="round" stroke-width="0.307" x1="19.413" x2="22.119" y1="13.866" y2="13.866"/><line data-el="r1-e4" stroke="#1A1A17" stroke-linecap="round" stroke-width="0.307" x1="11.815" x2="14.521" y1="21.344" y2="21.344"/><line data-el="r1-e13" stroke="#1A1A17" stroke-linecap="round" stroke-width="0.307" x1="27.012" x2="29.718" y1="21.344" y2="21.344"/><line data-el="r1-e19" stroke="#1A1A17" stroke-linecap="round" stroke-width="0.375" x1="0" x2="32.595" y1="20.444" y2="20.444"/><path d="M16.871 17.73L17.634 18.45L18.447 19.196L19.413 13.866" data-el="r1-e8" fill="none" stroke="#1A1A17" stroke-linecap="round" stroke-linejoin="round" stroke-width="0.307"/><path d="M9.273 25.209L10.035 25.928L10.849 26.674L11.815 21.344" data-el="r1-e4" fill="none" stroke="#1A1A17" stroke-linecap="round" stroke-linejoin="round" stroke-width="0.307"/><path d="M24.47 25.209L25.233 25.928L26.046 26.674L27.012 21.344" data-el="r1-e13" fill="none" stroke="#1A1A17" stroke-linecap="round" stroke-linejoin="round" stroke-width="0.307"/><g><rect fill="none" height="4.536" rx="0.6" width="2.65" x="10.175" y="14.96"/></g><g><rect fill="none" height="4.536" rx="0.6" width="2.65" x="19.113" y="14.96"/></g><g><rect fill="none" height="5.93" rx="0.6" width="5.848" x="16.571" y="13.566"/></g><g><rect fill="none" height="5.93" rx="0.6" width="12.244" x="10.175" y="13.566"/></g><g><rect fill="none" height="6.278" rx="0.6" width="15.797" x="8.399" y="13.566"/></g><g><rect fill="none" height="4.536" rx="0.6" width="2.65" x="2.577" y="22.438"/></g><g><rect fill="none" height="4.536" rx="0.6" width="2.65" x="11.515" y="22.438"/></g><g><rect fill="none" height="5.93" rx="0.6" width="5.848" x="8.973" y="21.044"/></g><g><rect fill="none" height="5.93" rx="0.6" width="12.244" x="2.577" y="21.044"/></g><g><rect fill="none" height="4.536" rx="0.6" width="2.65" x="17.774" y="22.438"/></g><g><rect fill="none" height="4.536" rx="0.6" width="2.65" x="26.712" y="22.438"/></g><g><rect fill="none" height="5.93" rx="0.6" width="5.848" x="24.17" y="21.044"/></g><g><rect fill="none" height="5.93" rx="0.6" width="12.244" x="17.774" y="21.044"/></g><g><rect fill="none" height="6.278" rx="0.6" width="30.995" x="0.8" y="21.044"/></g><g><rect fill="none" height="13.757" rx="0.6" width="33.195" x="-0.3" y="13.566"/></g><g><rect fill="none" height="14.357" rx="0.8" width="33.795" x="-0.6" y="13.266"/></g><text data-el="row1" fill="#C4C4BD" font-family="'Inter', 'Segoe UI', system-ui, sans-serif" font-size="3.1" x="43.595" y="23.339">nhân liên hợp tử và mẫu</text></g><g class="cv-alg-row"><text data-el="r2-e17" fill="#1A1A17" font-family="'KaTeX_Main', 'Latin Modern Math', serif" font-size="5.552" x="2.6" y="33.82">(</text><text data-el="r2-e7" fill="#1A1A17" font-family="'KaTeX_Main', 'Latin Modern Math', serif" font-size="4.1" x="4.377" y="34.169">2</text><text data-el="r2-e11" fill="#1A1A17" font-family="'KaTeX_Main', 'Latin Modern Math', serif" font-size="4.1" x="7.329" y="34.169">−</text><text data-el="r2-e3" fill="#1A1A17" font-family="'KaTeX_Main', 'Latin Modern Math', serif" font-size="4.1" x="13.315" y="34.169">3</text><text data-el="r2-e17" fill="#1A1A17" font-family="'KaTeX_Main', 'Latin Modern Math', serif" font-size="5.552" x="16.021" y="33.82">)</text><text data-el="r2-e2" fill="#1A1A17" font-family="'KaTeX_Main', 'Latin Modern Math', serif" font-size="4.1" x="1.1" y="41.647">2</text><text data-el="r2-e22" fill="#1A1A17" font-family="'KaTeX_Main', 'Latin Modern Math', serif" font-size="3" x="3.15" y="40.278">2</text><text data-el="r2-e28" fill="#1A1A17" font-family="'KaTeX_Main', 'Latin Modern Math', serif" font-size="4.1" x="5.552" y="41.647">−</text><text data-el="r2-e25" fill="#1A1A17" font-family="'KaTeX_Main', 'Latin Modern Math', serif" font-size="5.552" x="8.996" y="41.299">(</text><text data-el="r2-e3" fill="#1A1A17" font-family="'KaTeX_Main', 'Latin Modern Math', serif" font-size="4.1" x="13.315" y="41.647">3</text><text data-el="r2-e25" fill="#1A1A17" font-family="'KaTeX_Main', 'Latin Modern Math', serif" font-size="5.552" x="16.021" y="41.299">)</text><text data-el="r2-e24" fill="#1A1A17" font-family="'KaTeX_Main', 'Latin Modern Math', serif" font-size="3" x="17.797" y="39.648">2</text><line data-el="r2-e8" stroke="#1A1A17" stroke-linecap="round" stroke-width="0.307" x1="13.315" x2="16.021" y1="29.823" y2="29.823"/><line data-el="r2-e4" stroke="#1A1A17" stroke-linecap="round" stroke-width="0.307" x1="13.315" x2="16.021" y1="37.302" y2="37.302"/><line data-el="r2-e19" stroke="#1A1A17" stroke-linecap="round" stroke-width="0.375" x1="0" x2="20.397" y1="36.402" y2="36.402"/><path d="M10.773 33.687L11.535 34.407L12.349 35.153L13.315 29.823" data-el="r2-e8" fill="none" stroke="#1A1A17" stroke-linecap="round" stroke-linejoin="round" stroke-width="0.307"/><path d="M10.773 41.166L11.535 41.885L12.349 42.631L13.315 37.302" data-el="r2-e4" fill="none" stroke="#1A1A17" stroke-linecap="round" stroke-linejoin="round" stroke-width="0.307"/><g><rect fill="none" height="4.536" rx="0.6" width="2.65" x="4.077" y="30.917"/></g><g><rect fill="none" height="4.536" rx="0.6" width="2.65" x="13.015" y="30.917"/></g><g><rect fill="none" height="5.93" rx="0.6" width="5.848" x="10.473" y="29.523"/></g><g><rect fill="none" height="5.93" rx="0.6" width="12.244" x="4.077" y="29.523"/></g><g><rect fill="none" height="6.278" rx="0.6" width="15.797" x="2.3" y="29.523"/></g><g><rect fill="none" height="4.536" rx="0.6" width="2.65" x="0.8" y="38.396"/></g><g><rect fill="none" height="3.48" rx="0.6" width="2.1" x="2.85" y="37.818"/></g><g><rect fill="none" height="5.113" rx="0.6" width="4.15" x="0.8" y="37.818"/></g><g><rect fill="none" height="4.536" rx="0.6" width="2.65" x="13.015" y="38.396"/></g><g><rect fill="none" height="5.93" rx="0.6" width="5.848" x="10.473" y="37.002"/></g><g><rect fill="none" height="3.48" rx="0.6" width="2.1" x="17.497" y="37.188"/></g><g><rect fill="none" height="6.278" rx="0.6" width="10.901" x="8.696" y="37.002"/></g><g><rect fill="none" height="6.278" rx="0.6" width="18.797" x="0.8" y="37.002"/></g><g><rect fill="none" height="13.757" rx="0.6" width="20.997" x="-0.3" y="29.523"/></g><g><rect fill="none" height="14.357" rx="0.8" width="21.597" x="-0.6" y="29.223"/></g><text data-el="row2" fill="#C4C4BD" font-family="'Inter', 'Segoe UI', system-ui, sans-serif" font-size="3.1" x="43.595" y="39.296">nhân liên hợp</text></g><g class="cv-alg-row"><text data-el="r3-e17" fill="#1A1A17" font-family="'KaTeX_Main', 'Latin Modern Math', serif" font-size="5.552" x="1.1" y="49.777">(</text><text data-el="r3-e7" fill="#1A1A17" font-family="'KaTeX_Main', 'Latin Modern Math', serif" font-size="4.1" x="2.877" y="50.126">2</text><text data-el="r3-e11" fill="#1A1A17" font-family="'KaTeX_Main', 'Latin Modern Math', serif" font-size="4.1" x="5.829" y="50.126">−</text><text data-el="r3-e3" fill="#1A1A17" font-family="'KaTeX_Main', 'Latin Modern Math', serif" font-size="4.1" x="11.815" y="50.126">3</text><text data-el="r3-e17" fill="#1A1A17" font-family="'KaTeX_Main', 'Latin Modern Math', serif" font-size="5.552" x="14.521" y="49.777">)</text><text data-el="r3-e2" fill="#1A1A17" font-family="'KaTeX_Main', 'Latin Modern Math', serif" font-size="4.1" x="3.726" y="56.788">2</text><text data-el="r3-e22" fill="#1A1A17" font-family="'KaTeX_Main', 'Latin Modern Math', serif" font-size="3" x="5.776" y="55.418">2</text><text data-el="r3-e28" fill="#1A1A17" font-family="'KaTeX_Main', 'Latin Modern Math', serif" font-size="4.1" x="8.178" y="56.788">−</text><text data-el="r3-e3" fill="#1A1A17" font-family="'KaTeX_Main', 'Latin Modern Math', serif" font-size="4.1" x="11.622" y="56.788">3</text><line data-el="r3-e8" stroke="#1A1A17" stroke-linecap="round" stroke-width="0.307" x1="11.815" x2="14.521" y1="45.78" y2="45.78"/><line data-el="r3-e19" stroke="#1A1A17" stroke-linecap="round" stroke-width="0.375" x1="0" x2="17.397" y1="52.358" y2="52.358"/><path d="M9.273 49.644L10.035 50.364L10.849 51.11L11.815 45.78" data-el="r3-e8" fill="none" stroke="#1A1A17" stroke-linecap="round" stroke-linejoin="round" stroke-width="0.307"/><g><rect fill="none" height="4.536" rx="0.6" width="2.65" x="2.577" y="46.874"/></g><g><rect fill="none" height="4.536" rx="0.6" width="2.65" x="11.515" y="46.874"/></g><g><rect fill="none" height="5.93" rx="0.6" width="5.848" x="8.973" y="45.48"/></g><g><rect fill="none" height="5.93" rx="0.6" width="12.244" x="2.577" y="45.48"/></g><g><rect fill="none" height="6.278" rx="0.6" width="15.797" x="0.8" y="45.48"/></g><g><rect fill="none" height="4.536" rx="0.6" width="2.65" x="3.426" y="53.536"/></g><g><rect fill="none" height="3.48" rx="0.6" width="2.1" x="5.476" y="52.959"/></g><g><rect fill="none" height="5.113" rx="0.6" width="4.15" x="3.426" y="52.958"/></g><g><rect fill="none" height="4.536" rx="0.6" width="2.65" x="11.322" y="53.536"/></g><g><rect fill="none" height="5.113" rx="0.6" width="10.546" x="3.426" y="52.958"/></g><g><rect fill="none" height="12.592" rx="0.6" width="17.997" x="-0.3" y="45.48"/></g><g><rect fill="none" height="13.192" rx="0.8" width="18.597" x="-0.6" y="45.18"/></g><text data-el="row3" fill="#C4C4BD" font-family="'Inter', 'Segoe UI', system-ui, sans-serif" font-size="3.1" x="43.595" y="54.414">căn rồi luỹ thừa thì triệt tiêu</text></g><g class="cv-alg-row"><text data-el="r4-e17" fill="#1A1A17" font-family="'KaTeX_Main', 'Latin Modern Math', serif" font-size="5.552" x="1.1" y="64.569">(</text><text data-el="r4-e7" fill="#1A1A17" font-family="'KaTeX_Main', 'Latin Modern Math', serif" font-size="4.1" x="2.877" y="64.918">2</text><text data-el="r4-e11" fill="#1A1A17" font-family="'KaTeX_Main', 'Latin Modern Math', serif" font-size="4.1" x="5.829" y="64.918">−</text><text data-el="r4-e3" fill="#1A1A17" font-family="'KaTeX_Main', 'Latin Modern Math', serif" font-size="4.1" x="11.815" y="64.918">3</text><text data-el="r4-e17" fill="#1A1A17" font-family="'KaTeX_Main', 'Latin Modern Math', serif" font-size="5.552" x="14.521" y="64.569">)</text><text data-el="r4-e29" fill="#1A1A17" font-family="'KaTeX_Main', 'Latin Modern Math', serif" font-size="4.1" x="7.674" y="71.002">1</text><line data-el="r4-e8" stroke="#1A1A17" stroke-linecap="round" stroke-width="0.307" x1="11.815" x2="14.521" y1="60.572" y2="60.572"/><line data-el="r4-e19" stroke="#1A1A17" stroke-linecap="round" stroke-width="0.375" x1="0" x2="17.397" y1="67.15" y2="67.15"/><path d="M9.273 64.436L10.035 65.156L10.849 65.902L11.815 60.572" data-el="r4-e8" fill="none" stroke="#1A1A17" stroke-linecap="round" stroke-linejoin="round" stroke-width="0.307"/><g><rect fill="none" height="4.536" rx="0.6" width="2.65" x="2.577" y="61.666"/></g><g><rect fill="none" height="4.536" rx="0.6" width="2.65" x="11.515" y="61.666"/></g><g><rect fill="none" height="5.93" rx="0.6" width="5.848" x="8.973" y="60.272"/></g><g><rect fill="none" height="5.93" rx="0.6" width="12.244" x="2.577" y="60.272"/></g><g><rect fill="none" height="6.278" rx="0.6" width="15.797" x="0.8" y="60.272"/></g><g><rect fill="none" height="4.536" rx="0.6" width="2.65" x="7.374" y="67.75"/></g><g><rect fill="none" height="12.014" rx="0.6" width="17.997" x="-0.3" y="60.272"/></g><g><rect fill="none" height="12.614" rx="0.8" width="18.597" x="-0.6" y="59.972"/></g><text data-el="row4" fill="#C4C4BD" font-family="'Inter', 'Segoe UI', system-ui, sans-serif" font-size="3.1" x="43.595" y="68.79">tính ra số</text></g><g class="cv-alg-row"><text data-el="r5-e7" fill="#1A1A17" font-family="'KaTeX_Main', 'Latin Modern Math', serif" font-size="5" x="0" y="80.086">2</text><text data-el="r5-e11" fill="#1A1A17" font-family="'KaTeX_Main', 'Latin Modern Math', serif" font-size="5" x="3.6" y="80.086">−</text><text data-el="r5-e3" fill="#1A1A17" font-family="'KaTeX_Main', 'Latin Modern Math', serif" font-size="5" x="10.9" y="80.086">3</text><line data-el="r5-e8" stroke="#1A1A17" stroke-linecap="round" stroke-width="0.375" x1="10.9" x2="14.2" y1="74.786" y2="74.786"/><path d="M7.8 79.499L8.73 80.376L9.722 81.286L10.9 74.786" data-el="r5-e8" fill="none" stroke="#1A1A17" stroke-linecap="round" stroke-linejoin="round" stroke-width="0.375"/><g><rect fill="none" height="5.4" rx="0.6" width="3.1" x="-0.3" y="76.186"/></g><g><rect fill="none" height="5.4" rx="0.6" width="3.1" x="10.6" y="76.186"/></g><g><rect fill="none" height="7.1" rx="0.6" width="7" x="7.5" y="74.486"/></g><g><rect fill="none" height="7.1" rx="0.6" width="14.8" x="-0.3" y="74.486"/></g><g><rect fill="none" height="7.7" rx="0.8" width="15.4" x="-0.6" y="74.186"/></g><text data-el="row5" fill="#C4C4BD" font-family="'Inter', 'Segoe UI', system-ui, sans-serif" font-size="3.1" x="43.595" y="79.466">rút gọn</text></g></g></svg>