<svg viewBox="-14.5 -47.3 39 58.6" xmlns="http://www.w3.org/2000/svg"><rect fill="#FDFDFC" height="58.6" width="39" x="-14.5" y="-47.3"/><defs><pattern height="8" id="cv-pat-1" patternUnits="userSpaceOnUse" width="8"><rect fill="#0072B2" height="8" width="8"/></pattern><pattern height="8" id="cv-pat-2" patternUnits="userSpaceOnUse" width="8"><rect fill="#9ED9F5" height="8" width="8"/><line stroke="#3E8BB5" stroke-width="1.2" x1="0" x2="8" y1="8" y2="0"/><line stroke="#3E8BB5" stroke-width="1.2" x1="-1" x2="1" y1="1" y2="-1"/><line stroke="#3E8BB5" stroke-width="1.2" x1="7" x2="9" y1="9" y2="7"/></pattern><pattern height="8" id="cv-pat-3" patternUnits="userSpaceOnUse" width="8"><rect fill="#D55E00" height="8" width="8"/><line stroke="#8A3D00" stroke-width="1.2" x1="0" x2="8" y1="0" y2="8"/><line stroke="#8A3D00" stroke-width="1.2" x1="-1" x2="1" y1="7" y2="9"/><line stroke="#8A3D00" stroke-width="1.2" x1="7" x2="9" y1="-1" y2="1"/></pattern><pattern height="8" id="cv-pat-4" patternUnits="userSpaceOnUse" width="8"><rect fill="#009E73" height="8" width="8"/><circle cx="4" cy="4" fill="#006147" r="1.4"/></pattern><pattern height="8" id="cv-pat-5" patternUnits="userSpaceOnUse" width="8"><rect fill="#E69F00" height="8" width="8"/><line stroke="#9A6B00" stroke-width="1.2" x1="0" x2="8" y1="4" y2="4"/><line stroke="#9A6B00" stroke-width="1.2" x1="4" x2="4" y1="0" y2="8"/></pattern><pattern height="8" id="cv-pat-6" patternUnits="userSpaceOnUse" width="8"><rect fill="#CC79A7" height="8" width="8"/><line stroke="#8A4E70" stroke-width="1.2" x1="0" x2="8" y1="4" y2="4"/></pattern><pattern height="8" id="cv-pat-7" patternUnits="userSpaceOnUse" width="8"><rect fill="#F0E442" height="8" width="8"/><line stroke="#9C9400" stroke-width="1.2" x1="4" x2="4" y1="0" y2="8"/></pattern><pattern height="8" id="cv-pat-8" patternUnits="userSpaceOnUse" width="8"><rect fill="#3A3A3A" height="8" width="8"/><line stroke="#000000" stroke-width="1.2" x1="0" x2="8" y1="0" y2="8"/><line stroke="#000000" stroke-width="1.2" x1="0" x2="8" y1="8" y2="0"/></pattern></defs><g class="cv-edge-labels"/><g class="cv-edges"><path d="M5 0L10 -12" fill="none" stroke="#1A1A1A" stroke-linecap="round" stroke-width="0.42"/><path d="M0 -12L10 -24" fill="none" stroke="#1A1A1A" stroke-linecap="round" stroke-width="0.42"/><path d="M10 -24L5 -36" fill="none" stroke="#1A1A1A" stroke-linecap="round" stroke-width="0.42"/><path d="M5 0L0 -12" fill="none" stroke="#1A1A1A" stroke-linecap="round" stroke-width="1.232"/><path d="M5 0L0 -12" fill="none" stroke="url(#cv-pat-1)" stroke-linecap="round" stroke-width="0.672"/><path d="M0 -12L0 -24" fill="none" stroke="#1A1A1A" stroke-linecap="round" stroke-width="1.232"/><path d="M0 -12L0 -24" fill="none" stroke="url(#cv-pat-1)" stroke-linecap="round" stroke-width="0.672"/><path d="M10 -12L10 -24" fill="none" stroke="#1A1A1A" stroke-linecap="round" stroke-width="1.232"/><path d="M10 -12L10 -24" fill="none" stroke="url(#cv-pat-2)" stroke-linecap="round" stroke-width="0.672"/><path d="M0 -24L5 -36" fill="none" stroke="#1A1A1A" stroke-linecap="round" stroke-width="1.232"/><path d="M0 -24L5 -36" fill="none" stroke="url(#cv-pat-1)" stroke-linecap="round" stroke-width="0.672"/><polygon fill="#1A1A1A" paint-order="stroke" points="9.11,-9.87 9.12,-8 7.78,-8.56" stroke="#FDFDFC" stroke-linejoin="round" stroke-width="0.252"/><polygon fill="#1A1A1A" paint-order="stroke" points="8.53,-22.24 7.98,-20.45 6.87,-21.37" stroke="#FDFDFC" stroke-linejoin="round" stroke-width="0.252"/><polygon fill="#1A1A1A" paint-order="stroke" points="5.89,-33.87 7.22,-32.56 5.88,-32" stroke="#FDFDFC" stroke-linejoin="round" stroke-width="0.252"/><polygon fill="url(#cv-pat-1)" paint-order="stroke" points="0.89,-9.87 2.6,-8.18 0.88,-7.47" stroke="#FDFDFC" stroke-linejoin="round" stroke-width="0.252"/><polygon fill="url(#cv-pat-1)" paint-order="stroke" points="0,-21.7 0.93,-19.48 -0.93,-19.48" stroke="#FDFDFC" stroke-linejoin="round" stroke-width="0.252"/><polygon fill="url(#cv-pat-2)" paint-order="stroke" points="10,-21.7 10.93,-19.48 9.07,-19.48" stroke="#FDFDFC" stroke-linejoin="round" stroke-width="0.252"/><polygon fill="url(#cv-pat-1)" paint-order="stroke" points="4.11,-33.87 4.12,-31.47 2.4,-32.18" stroke="#FDFDFC" stroke-linejoin="round" stroke-width="0.252"/></g><g class="cv-vertices"><circle cx="5" cy="0" fill="url(#cv-pat-1)" paint-order="stroke" r="2.3" stroke="#1A1A1A" stroke-width="0.56"/><text dominant-baseline="hanging" fill="#1A1A1A" font-family="'KaTeX_Main', 'Latin Modern Math', serif" font-size="2.415" font-style="italic" text-anchor="middle" x="5" y="3.4">1</text><circle cx="0" cy="-12" fill="url(#cv-pat-1)" paint-order="stroke" r="2.3" stroke="#1A1A1A" stroke-width="0.56"/><text dominant-baseline="central" fill="#1A1A1A" font-family="'KaTeX_Main', 'Latin Modern Math', serif" font-size="2.415" font-style="italic" text-anchor="end" x="-3.33" y="-11.33">2</text><circle cx="10" cy="-12" fill="url(#cv-pat-2)" paint-order="stroke" r="2.3" stroke="#1A1A1A" stroke-width="0.56"/><text dominant-baseline="central" fill="#1A1A1A" font-family="'KaTeX_Main', 'Latin Modern Math', serif" font-size="2.415" font-style="italic" text-anchor="start" x="13.33" y="-11.33">3</text><circle cx="0" cy="-24" fill="url(#cv-pat-1)" paint-order="stroke" r="2.3" stroke="#1A1A1A" stroke-width="0.56"/><text dominant-baseline="central" fill="#1A1A1A" font-family="'KaTeX_Main', 'Latin Modern Math', serif" font-size="2.415" font-style="italic" text-anchor="end" x="-3.33" y="-24.67">4</text><circle cx="10" cy="-24" fill="url(#cv-pat-2)" paint-order="stroke" r="2.3" stroke="#1A1A1A" stroke-width="0.56"/><text dominant-baseline="central" fill="#1A1A1A" font-family="'KaTeX_Main', 'Latin Modern Math', serif" font-size="2.415" font-style="italic" text-anchor="start" x="13.33" y="-24.67">6</text><circle cx="5" cy="-36" fill="url(#cv-pat-1)" paint-order="stroke" r="2.3" stroke="#1A1A1A" stroke-width="0.56"/><text dominant-baseline="auto" fill="#1A1A1A" font-family="'KaTeX_Main', 'Latin Modern Math', serif" font-size="2.415" font-style="italic" text-anchor="middle" x="5" y="-39.4">12</text></g></svg>