<svg viewBox="-3 -3 81.491 68.36" xmlns="http://www.w3.org/2000/svg"><rect fill="#FDFDFC" height="68.36" width="81.491" x="-3" y="-3"/><defs><pattern height="8" id="cv-pat-1" patternUnits="userSpaceOnUse" width="8"><rect fill="#0072B2" height="8" width="8"/></pattern><pattern height="8" id="cv-pat-2" patternUnits="userSpaceOnUse" width="8"><rect fill="#9ED9F5" height="8" width="8"/><line stroke="#3E8BB5" stroke-width="1.2" x1="0" x2="8" y1="8" y2="0"/><line stroke="#3E8BB5" stroke-width="1.2" x1="-1" x2="1" y1="1" y2="-1"/><line stroke="#3E8BB5" stroke-width="1.2" x1="7" x2="9" y1="9" y2="7"/></pattern><pattern height="8" id="cv-pat-3" patternUnits="userSpaceOnUse" width="8"><rect fill="#D55E00" height="8" width="8"/><line stroke="#8A3D00" stroke-width="1.2" x1="0" x2="8" y1="0" y2="8"/><line stroke="#8A3D00" stroke-width="1.2" x1="-1" x2="1" y1="7" y2="9"/><line stroke="#8A3D00" stroke-width="1.2" x1="7" x2="9" y1="-1" y2="1"/></pattern><pattern height="8" id="cv-pat-4" patternUnits="userSpaceOnUse" width="8"><rect fill="#009E73" height="8" width="8"/><circle cx="4" cy="4" fill="#006147" r="1.4"/></pattern><pattern height="8" id="cv-pat-5" patternUnits="userSpaceOnUse" width="8"><rect fill="#E69F00" height="8" width="8"/><line stroke="#9A6B00" stroke-width="1.2" x1="0" x2="8" y1="4" y2="4"/><line stroke="#9A6B00" stroke-width="1.2" x1="4" x2="4" y1="0" y2="8"/></pattern><pattern height="8" id="cv-pat-6" patternUnits="userSpaceOnUse" width="8"><rect fill="#CC79A7" height="8" width="8"/><line stroke="#8A4E70" stroke-width="1.2" x1="0" x2="8" y1="4" y2="4"/></pattern><pattern height="8" id="cv-pat-7" patternUnits="userSpaceOnUse" width="8"><rect fill="#F0E442" height="8" width="8"/><line stroke="#9C9400" stroke-width="1.2" x1="4" x2="4" y1="0" y2="8"/></pattern><pattern height="8" id="cv-pat-8" patternUnits="userSpaceOnUse" width="8"><rect fill="#3A3A3A" height="8" width="8"/><line stroke="#000000" stroke-width="1.2" x1="0" x2="8" y1="0" y2="8"/><line stroke="#000000" stroke-width="1.2" x1="0" x2="8" y1="8" y2="0"/></pattern></defs><g class="cv-algebra"><g class="cv-alg-row"><text data-el="e1" fill="#1A1A17" font-family="'KaTeX_Main', 'Latin Modern Math', serif" font-size="4.1" x="4.298" y="2.952">1</text><text data-el="e2" fill="#1A1A17" font-family="'KaTeX_Main', 'Latin Modern Math', serif" font-size="4.1" font-style="italic" x="1.1" y="8.688">x</text><text data-el="e5" fill="#1A1A17" font-family="'KaTeX_Main', 'Latin Modern Math', serif" font-size="4.1" x="4.052" y="8.688">−</text><text data-el="e4" fill="#1A1A17" font-family="'KaTeX_Main', 'Latin Modern Math', serif" font-size="4.1" x="7.496" y="8.688">1</text><text data-el="e12" fill="#1A1A17" font-family="'KaTeX_Main', 'Latin Modern Math', serif" font-size="5" x="11.746" y="6.236">+</text><text data-el="e7" fill="#1A1A17" font-family="'KaTeX_Main', 'Latin Modern Math', serif" font-size="4.1" x="20.244" y="2.952">1</text><text data-el="e8" fill="#1A1A17" font-family="'KaTeX_Main', 'Latin Modern Math', serif" font-size="4.1" font-style="italic" x="17.046" y="8.688">x</text><text data-el="e10" fill="#1A1A17" font-family="'KaTeX_Main', 'Latin Modern Math', serif" font-size="4.1" x="19.998" y="8.688">+</text><text data-el="e9" fill="#1A1A17" font-family="'KaTeX_Main', 'Latin Modern Math', serif" font-size="4.1" x="23.442" y="8.688">1</text><line data-el="e6" stroke="#1A1A17" stroke-linecap="round" stroke-width="0.375" x1="0" x2="10.646" y1="4.836" y2="4.836"/><line data-el="e11" stroke="#1A1A17" stroke-linecap="round" stroke-width="0.375" x1="15.946" x2="26.592" y1="4.836" y2="4.836"/><g><rect fill="none" height="4.536" rx="0.6" width="2.65" x="3.998" y="-0.3"/></g><g><rect fill="none" height="4.536" rx="0.6" width="2.65" x="0.8" y="5.436"/></g><g><rect fill="none" height="4.536" rx="0.6" width="2.65" x="7.196" y="5.436"/></g><g><rect fill="none" height="4.536" rx="0.6" width="9.046" x="0.8" y="5.436"/></g><g><rect fill="none" height="10.272" rx="0.6" width="11.246" x="-0.3" y="-0.3"/></g><g><rect fill="none" height="4.536" rx="0.6" width="2.65" x="19.944" y="-0.3"/></g><g><rect fill="none" height="4.536" rx="0.6" width="2.65" x="16.746" y="5.436"/></g><g><rect fill="none" height="4.536" rx="0.6" width="2.65" x="23.142" y="5.436"/></g><g><rect fill="none" height="4.536" rx="0.6" width="9.046" x="16.746" y="5.436"/></g><g><rect fill="none" height="10.272" rx="0.6" width="11.246" x="15.646" y="-0.3"/></g><g><rect fill="none" height="10.272" rx="0.6" width="27.192" x="-0.3" y="-0.3"/></g><g><rect fill="none" height="10.872" rx="0.8" width="27.792" x="-0.6" y="-0.6"/></g></g><g class="cv-alg-row"><text data-el="e16" fill="#1A1A17" font-family="'KaTeX_Main', 'Latin Modern Math', serif" font-size="4.1" x="1.1" y="15.424">(</text><text data-el="e14" fill="#1A1A17" font-family="'KaTeX_Main', 'Latin Modern Math', serif" font-size="4.1" font-style="italic" x="2.412" y="15.424">x</text><text data-el="e13" fill="#1A1A17" font-family="'KaTeX_Main', 'Latin Modern Math', serif" font-size="4.1" x="5.364" y="15.424">+</text><text data-el="e15" fill="#1A1A17" font-family="'KaTeX_Main', 'Latin Modern Math', serif" font-size="4.1" x="8.808" y="15.424">1</text><text data-el="e16" fill="#1A1A17" font-family="'KaTeX_Main', 'Latin Modern Math', serif" font-size="4.1" x="10.858" y="15.424">)</text><text data-el="e22" fill="#1A1A17" font-family="'KaTeX_Main', 'Latin Modern Math', serif" font-size="4.1" x="13.072" y="15.424">+</text><text data-el="e20" fill="#1A1A17" font-family="'KaTeX_Main', 'Latin Modern Math', serif" font-size="4.1" x="16.516" y="15.424">(</text><text data-el="e18" fill="#1A1A17" font-family="'KaTeX_Main', 'Latin Modern Math', serif" font-size="4.1" font-style="italic" x="17.828" y="15.424">x</text><text data-el="e17" fill="#1A1A17" font-family="'KaTeX_Main', 'Latin Modern Math', serif" font-size="4.1" x="20.78" y="15.424">−</text><text data-el="e19" fill="#1A1A17" font-family="'KaTeX_Main', 'Latin Modern Math', serif" font-size="4.1" x="24.224" y="15.424">1</text><text data-el="e20" fill="#1A1A17" font-family="'KaTeX_Main', 'Latin Modern Math', serif" font-size="4.1" x="26.274" y="15.424">)</text><text data-el="e21" fill="#1A1A17" font-family="'KaTeX_Main', 'Latin Modern Math', serif" font-size="4.1" x="3.273" y="21.16">(</text><text data-el="e2" fill="#1A1A17" font-family="'KaTeX_Main', 'Latin Modern Math', serif" font-size="4.1" font-style="italic" x="4.585" y="21.16">x</text><text data-el="e5" fill="#1A1A17" font-family="'KaTeX_Main', 'Latin Modern Math', serif" font-size="4.1" x="7.537" y="21.16">−</text><text data-el="e4" fill="#1A1A17" font-family="'KaTeX_Main', 'Latin Modern Math', serif" font-size="4.1" x="10.981" y="21.16">1</text><text data-el="e21" fill="#1A1A17" font-family="'KaTeX_Main', 'Latin Modern Math', serif" font-size="4.1" x="13.031" y="21.16">)</text><text data-el="e21" fill="#1A1A17" font-family="'KaTeX_Main', 'Latin Modern Math', serif" font-size="4.1" x="14.343" y="21.16">(</text><text data-el="e8" fill="#1A1A17" font-family="'KaTeX_Main', 'Latin Modern Math', serif" font-size="4.1" font-style="italic" x="15.655" y="21.16">x</text><text data-el="e10" fill="#1A1A17" font-family="'KaTeX_Main', 'Latin Modern Math', serif" font-size="4.1" x="18.607" y="21.16">+</text><text data-el="e9" fill="#1A1A17" font-family="'KaTeX_Main', 'Latin Modern Math', serif" font-size="4.1" x="22.051" y="21.16">1</text><text data-el="e21" fill="#1A1A17" font-family="'KaTeX_Main', 'Latin Modern Math', serif" font-size="4.1" x="24.101" y="21.16">)</text><line data-el="e23" stroke="#1A1A17" stroke-linecap="round" stroke-width="0.375" x1="0" x2="28.686" y1="17.308" y2="17.308"/><g><rect fill="none" height="4.536" rx="0.6" width="2.65" x="2.112" y="12.172"/></g><g><rect fill="none" height="4.536" rx="0.6" width="2.65" x="8.508" y="12.172"/></g><g><rect fill="none" height="4.536" rx="0.6" width="9.046" x="2.112" y="12.172"/></g><g><rect fill="none" height="4.536" rx="0.6" width="11.67" x="0.8" y="12.172"/></g><g><rect fill="none" height="4.536" rx="0.6" width="2.65" x="17.528" y="12.172"/></g><g><rect fill="none" height="4.536" rx="0.6" width="2.65" x="23.924" y="12.172"/></g><g><rect fill="none" height="4.536" rx="0.6" width="9.046" x="17.528" y="12.172"/></g><g><rect fill="none" height="4.536" rx="0.6" width="11.67" x="16.216" y="12.172"/></g><g><rect fill="none" height="4.536" rx="0.6" width="27.086" x="0.8" y="12.172"/></g><g><rect fill="none" height="4.536" rx="0.6" width="2.65" x="4.285" y="17.908"/></g><g><rect fill="none" height="4.536" rx="0.6" width="2.65" x="10.681" y="17.908"/></g><g><rect fill="none" height="4.536" rx="0.6" width="9.046" x="4.285" y="17.908"/></g><g><rect fill="none" height="4.536" rx="0.6" width="2.65" x="15.355" y="17.908"/></g><g><rect fill="none" height="4.536" rx="0.6" width="2.65" x="21.751" y="17.908"/></g><g><rect fill="none" height="4.536" rx="0.6" width="9.046" x="15.355" y="17.908"/></g><g><rect fill="none" height="4.536" rx="0.6" width="22.74" x="2.973" y="17.908"/></g><g><rect fill="none" height="10.272" rx="0.6" width="29.286" x="-0.3" y="12.172"/></g><g><rect fill="none" height="10.872" rx="0.8" width="29.886" x="-0.6" y="11.872"/></g><text fill="#C4C4BD" font-family="'Inter', 'Segoe UI', system-ui, sans-serif" font-size="3.1" x="39.686" y="19.436">quy đồng mẫu</text></g><g class="cv-alg-row"><text data-el="e16" fill="#1A1A17" font-family="'KaTeX_Main', 'Latin Modern Math', serif" font-size="4.1" x="1.1" y="27.896">(</text><text data-el="e14" fill="#1A1A17" font-family="'KaTeX_Main', 'Latin Modern Math', serif" font-size="4.1" font-style="italic" x="2.412" y="27.896">x</text><text data-el="e13" fill="#1A1A17" font-family="'KaTeX_Main', 'Latin Modern Math', serif" font-size="4.1" x="5.364" y="27.896">+</text><text data-el="e15" fill="#1A1A17" font-family="'KaTeX_Main', 'Latin Modern Math', serif" font-size="4.1" x="8.808" y="27.896">1</text><text data-el="e16" fill="#1A1A17" font-family="'KaTeX_Main', 'Latin Modern Math', serif" font-size="4.1" x="10.858" y="27.896">)</text><text data-el="e22" fill="#1A1A17" font-family="'KaTeX_Main', 'Latin Modern Math', serif" font-size="4.1" x="13.072" y="27.896">+</text><text data-el="e18" fill="#1A1A17" font-family="'KaTeX_Main', 'Latin Modern Math', serif" font-size="4.1" font-style="italic" x="16.516" y="27.896">x</text><text data-el="e22" fill="#1A1A17" font-family="'KaTeX_Main', 'Latin Modern Math', serif" font-size="4.1" x="19.468" y="27.896">−</text><text data-el="e19" fill="#1A1A17" font-family="'KaTeX_Main', 'Latin Modern Math', serif" font-size="4.1" x="22.912" y="27.896">1</text><text data-el="e21" fill="#1A1A17" font-family="'KaTeX_Main', 'Latin Modern Math', serif" font-size="4.1" x="1.961" y="33.632">(</text><text data-el="e2" fill="#1A1A17" font-family="'KaTeX_Main', 'Latin Modern Math', serif" font-size="4.1" font-style="italic" x="3.273" y="33.632">x</text><text data-el="e5" fill="#1A1A17" font-family="'KaTeX_Main', 'Latin Modern Math', serif" font-size="4.1" x="6.225" y="33.632">−</text><text data-el="e4" fill="#1A1A17" font-family="'KaTeX_Main', 'Latin Modern Math', serif" font-size="4.1" x="9.669" y="33.632">1</text><text data-el="e21" fill="#1A1A17" font-family="'KaTeX_Main', 'Latin Modern Math', serif" font-size="4.1" x="11.719" y="33.632">)</text><text data-el="e21" fill="#1A1A17" font-family="'KaTeX_Main', 'Latin Modern Math', serif" font-size="4.1" x="13.031" y="33.632">(</text><text data-el="e8" fill="#1A1A17" font-family="'KaTeX_Main', 'Latin Modern Math', serif" font-size="4.1" font-style="italic" x="14.343" y="33.632">x</text><text data-el="e10" fill="#1A1A17" font-family="'KaTeX_Main', 'Latin Modern Math', serif" font-size="4.1" x="17.295" y="33.632">+</text><text data-el="e9" fill="#1A1A17" font-family="'KaTeX_Main', 'Latin Modern Math', serif" font-size="4.1" x="20.739" y="33.632">1</text><text data-el="e21" fill="#1A1A17" font-family="'KaTeX_Main', 'Latin Modern Math', serif" font-size="4.1" x="22.789" y="33.632">)</text><line data-el="e23" stroke="#1A1A17" stroke-linecap="round" stroke-width="0.375" x1="0" x2="26.062" y1="29.78" y2="29.78"/><g><rect fill="none" height="4.536" rx="0.6" width="2.65" x="2.112" y="24.644"/></g><g><rect fill="none" height="4.536" rx="0.6" width="2.65" x="8.508" y="24.644"/></g><g><rect fill="none" height="4.536" rx="0.6" width="9.046" x="2.112" y="24.644"/></g><g><rect fill="none" height="4.536" rx="0.6" width="11.67" x="0.8" y="24.644"/></g><g><rect fill="none" height="4.536" rx="0.6" width="2.65" x="16.216" y="24.644"/></g><g><rect fill="none" height="4.536" rx="0.6" width="2.65" x="22.612" y="24.644"/></g><g><rect fill="none" height="4.536" rx="0.6" width="24.462" x="0.8" y="24.644"/></g><g><rect fill="none" height="4.536" rx="0.6" width="2.65" x="2.973" y="30.38"/></g><g><rect fill="none" height="4.536" rx="0.6" width="2.65" x="9.369" y="30.38"/></g><g><rect fill="none" height="4.536" rx="0.6" width="9.046" x="2.973" y="30.38"/></g><g><rect fill="none" height="4.536" rx="0.6" width="2.65" x="14.043" y="30.38"/></g><g><rect fill="none" height="4.536" rx="0.6" width="2.65" x="20.439" y="30.38"/></g><g><rect fill="none" height="4.536" rx="0.6" width="9.046" x="14.043" y="30.38"/></g><g><rect fill="none" height="4.536" rx="0.6" width="22.74" x="1.661" y="30.38"/></g><g><rect fill="none" height="10.272" rx="0.6" width="26.662" x="-0.3" y="24.644"/></g><g><rect fill="none" height="10.872" rx="0.8" width="27.262" x="-0.6" y="24.344"/></g><text fill="#C4C4BD" font-family="'Inter', 'Segoe UI', system-ui, sans-serif" font-size="3.1" x="39.686" y="31.908">bỏ nhân 1, cộng 0</text></g><g class="cv-alg-row"><text data-el="e14" fill="#1A1A17" font-family="'KaTeX_Main', 'Latin Modern Math', serif" font-size="4.1" font-style="italic" x="1.551" y="40.368">x</text><text data-el="e22" fill="#1A1A17" font-family="'KaTeX_Main', 'Latin Modern Math', serif" font-size="4.1" x="4.503" y="40.368">+</text><text data-el="e15" fill="#1A1A17" font-family="'KaTeX_Main', 'Latin Modern Math', serif" font-size="4.1" x="7.947" y="40.368">1</text><text data-el="e22" fill="#1A1A17" font-family="'KaTeX_Main', 'Latin Modern Math', serif" font-size="4.1" x="10.899" y="40.368">+</text><text data-el="e18" fill="#1A1A17" font-family="'KaTeX_Main', 'Latin Modern Math', serif" font-size="4.1" font-style="italic" x="14.343" y="40.368">x</text><text data-el="e22" fill="#1A1A17" font-family="'KaTeX_Main', 'Latin Modern Math', serif" font-size="4.1" x="17.295" y="40.368">−</text><text data-el="e19" fill="#1A1A17" font-family="'KaTeX_Main', 'Latin Modern Math', serif" font-size="4.1" x="20.739" y="40.368">1</text><text data-el="e21" fill="#1A1A17" font-family="'KaTeX_Main', 'Latin Modern Math', serif" font-size="4.1" x="1.1" y="46.104">(</text><text data-el="e2" fill="#1A1A17" font-family="'KaTeX_Main', 'Latin Modern Math', serif" font-size="4.1" font-style="italic" x="2.412" y="46.104">x</text><text data-el="e5" fill="#1A1A17" font-family="'KaTeX_Main', 'Latin Modern Math', serif" font-size="4.1" x="5.364" y="46.104">−</text><text data-el="e4" fill="#1A1A17" font-family="'KaTeX_Main', 'Latin Modern Math', serif" font-size="4.1" x="8.808" y="46.104">1</text><text data-el="e21" fill="#1A1A17" font-family="'KaTeX_Main', 'Latin Modern Math', serif" font-size="4.1" x="10.858" y="46.104">)</text><text data-el="e21" fill="#1A1A17" font-family="'KaTeX_Main', 'Latin Modern Math', serif" font-size="4.1" x="12.17" y="46.104">(</text><text data-el="e8" fill="#1A1A17" font-family="'KaTeX_Main', 'Latin Modern Math', serif" font-size="4.1" font-style="italic" x="13.482" y="46.104">x</text><text data-el="e10" fill="#1A1A17" font-family="'KaTeX_Main', 'Latin Modern Math', serif" font-size="4.1" x="16.434" y="46.104">+</text><text data-el="e9" fill="#1A1A17" font-family="'KaTeX_Main', 'Latin Modern Math', serif" font-size="4.1" x="19.878" y="46.104">1</text><text data-el="e21" fill="#1A1A17" font-family="'KaTeX_Main', 'Latin Modern Math', serif" font-size="4.1" x="21.928" y="46.104">)</text><line data-el="e23" stroke="#1A1A17" stroke-linecap="round" stroke-width="0.375" x1="0" x2="24.34" y1="42.252" y2="42.252"/><g><rect fill="none" height="4.536" rx="0.6" width="2.65" x="1.251" y="37.116"/></g><g><rect fill="none" height="4.536" rx="0.6" width="2.65" x="7.647" y="37.116"/></g><g><rect fill="none" height="4.536" rx="0.6" width="2.65" x="14.043" y="37.116"/></g><g><rect fill="none" height="4.536" rx="0.6" width="2.65" x="20.439" y="37.116"/></g><g><rect fill="none" height="4.536" rx="0.6" width="21.838" x="1.251" y="37.116"/></g><g><rect fill="none" height="4.536" rx="0.6" width="2.65" x="2.112" y="42.852"/></g><g><rect fill="none" height="4.536" rx="0.6" width="2.65" x="8.508" y="42.852"/></g><g><rect fill="none" height="4.536" rx="0.6" width="9.046" x="2.112" y="42.852"/></g><g><rect fill="none" height="4.536" rx="0.6" width="2.65" x="13.182" y="42.852"/></g><g><rect fill="none" height="4.536" rx="0.6" width="2.65" x="19.578" y="42.852"/></g><g><rect fill="none" height="4.536" rx="0.6" width="9.046" x="13.182" y="42.852"/></g><g><rect fill="none" height="4.536" rx="0.6" width="22.74" x="0.8" y="42.852"/></g><g><rect fill="none" height="10.272" rx="0.6" width="24.94" x="-0.3" y="37.116"/></g><g><rect fill="none" height="10.872" rx="0.8" width="25.54" x="-0.6" y="36.816"/></g><text fill="#C4C4BD" font-family="'Inter', 'Segoe UI', system-ui, sans-serif" font-size="3.1" x="39.686" y="44.38">bỏ nhân 1, cộng 0</text></g><g class="cv-alg-row"><text data-el="e24" fill="#1A1A17" font-family="'KaTeX_Main', 'Latin Modern Math', serif" font-size="4.1" x="10.12" y="52.84">2</text><text data-el="e14" fill="#1A1A17" font-family="'KaTeX_Main', 'Latin Modern Math', serif" font-size="4.1" font-style="italic" x="12.17" y="52.84">x</text><text data-el="e21" fill="#1A1A17" font-family="'KaTeX_Main', 'Latin Modern Math', serif" font-size="4.1" x="1.1" y="58.576">(</text><text data-el="e2" fill="#1A1A17" font-family="'KaTeX_Main', 'Latin Modern Math', serif" font-size="4.1" font-style="italic" x="2.412" y="58.576">x</text><text data-el="e5" fill="#1A1A17" font-family="'KaTeX_Main', 'Latin Modern Math', serif" font-size="4.1" x="5.364" y="58.576">−</text><text data-el="e4" fill="#1A1A17" font-family="'KaTeX_Main', 'Latin Modern Math', serif" font-size="4.1" x="8.808" y="58.576">1</text><text data-el="e21" fill="#1A1A17" font-family="'KaTeX_Main', 'Latin Modern Math', serif" font-size="4.1" x="10.858" y="58.576">)</text><text data-el="e21" fill="#1A1A17" font-family="'KaTeX_Main', 'Latin Modern Math', serif" font-size="4.1" x="12.17" y="58.576">(</text><text data-el="e8" fill="#1A1A17" font-family="'KaTeX_Main', 'Latin Modern Math', serif" font-size="4.1" font-style="italic" x="13.482" y="58.576">x</text><text data-el="e10" fill="#1A1A17" font-family="'KaTeX_Main', 'Latin Modern Math', serif" font-size="4.1" x="16.434" y="58.576">+</text><text data-el="e9" fill="#1A1A17" font-family="'KaTeX_Main', 'Latin Modern Math', serif" font-size="4.1" x="19.878" y="58.576">1</text><text data-el="e21" fill="#1A1A17" font-family="'KaTeX_Main', 'Latin Modern Math', serif" font-size="4.1" x="21.928" y="58.576">)</text><line data-el="e23" stroke="#1A1A17" stroke-linecap="round" stroke-width="0.375" x1="0" x2="24.34" y1="54.724" y2="54.724"/><g><rect fill="none" height="4.536" rx="0.6" width="2.65" x="9.82" y="49.588"/></g><g><rect fill="none" height="4.536" rx="0.6" width="2.65" x="11.87" y="49.588"/></g><g><rect fill="none" height="4.536" rx="0.6" width="4.7" x="9.82" y="49.588"/></g><g><rect fill="none" height="4.536" rx="0.6" width="2.65" x="2.112" y="55.324"/></g><g><rect fill="none" height="4.536" rx="0.6" width="2.65" x="8.508" y="55.324"/></g><g><rect fill="none" height="4.536" rx="0.6" width="9.046" x="2.112" y="55.324"/></g><g><rect fill="none" height="4.536" rx="0.6" width="2.65" x="13.182" y="55.324"/></g><g><rect fill="none" height="4.536" rx="0.6" width="2.65" x="19.578" y="55.324"/></g><g><rect fill="none" height="4.536" rx="0.6" width="9.046" x="13.182" y="55.324"/></g><g><rect fill="none" height="4.536" rx="0.6" width="22.74" x="0.8" y="55.324"/></g><g><rect fill="none" height="10.272" rx="0.6" width="24.94" x="-0.3" y="49.588"/></g><g><rect fill="none" height="10.872" rx="0.8" width="25.54" x="-0.6" y="49.288"/></g><text fill="#C4C4BD" font-family="'Inter', 'Segoe UI', system-ui, sans-serif" font-size="3.1" x="39.686" y="56.852">gộp hạng tử đồng dạng</text></g></g></svg>