<svg viewBox="-8.8 -8.8 37.6 47.6" xmlns="http://www.w3.org/2000/svg"><rect fill="#FDFDFC" height="47.6" width="37.6" x="-8.8" y="-8.8"/><defs><pattern height="8" id="cv-pat-1" patternUnits="userSpaceOnUse" width="8"><rect fill="#0072B2" height="8" width="8"/></pattern><pattern height="8" id="cv-pat-2" patternUnits="userSpaceOnUse" width="8"><rect fill="#9ED9F5" height="8" width="8"/><line stroke="#3E8BB5" stroke-width="1.2" x1="0" x2="8" y1="8" y2="0"/><line stroke="#3E8BB5" stroke-width="1.2" x1="-1" x2="1" y1="1" y2="-1"/><line stroke="#3E8BB5" stroke-width="1.2" x1="7" x2="9" y1="9" y2="7"/></pattern><pattern height="8" id="cv-pat-3" patternUnits="userSpaceOnUse" width="8"><rect fill="#D55E00" height="8" width="8"/><line stroke="#8A3D00" stroke-width="1.2" x1="0" x2="8" y1="0" y2="8"/><line stroke="#8A3D00" stroke-width="1.2" x1="-1" x2="1" y1="7" y2="9"/><line stroke="#8A3D00" stroke-width="1.2" x1="7" x2="9" y1="-1" y2="1"/></pattern><pattern height="8" id="cv-pat-4" patternUnits="userSpaceOnUse" width="8"><rect fill="#009E73" height="8" width="8"/><circle cx="4" cy="4" fill="#006147" r="1.4"/></pattern><pattern height="8" id="cv-pat-5" patternUnits="userSpaceOnUse" width="8"><rect fill="#E69F00" height="8" width="8"/><line stroke="#9A6B00" stroke-width="1.2" x1="0" x2="8" y1="4" y2="4"/><line stroke="#9A6B00" stroke-width="1.2" x1="4" x2="4" y1="0" y2="8"/></pattern><pattern height="8" id="cv-pat-6" patternUnits="userSpaceOnUse" width="8"><rect fill="#CC79A7" height="8" width="8"/><line stroke="#8A4E70" stroke-width="1.2" x1="0" x2="8" y1="4" y2="4"/></pattern><pattern height="8" id="cv-pat-7" patternUnits="userSpaceOnUse" width="8"><rect fill="#F0E442" height="8" width="8"/><line stroke="#9C9400" stroke-width="1.2" x1="4" x2="4" y1="0" y2="8"/></pattern><pattern height="8" id="cv-pat-8" patternUnits="userSpaceOnUse" width="8"><rect fill="#3A3A3A" height="8" width="8"/><line stroke="#000000" stroke-width="1.2" x1="0" x2="8" y1="0" y2="8"/><line stroke="#000000" stroke-width="1.2" x1="0" x2="8" y1="8" y2="0"/></pattern></defs><g class="cv-point-grid"><line stroke="#C4C4BD" stroke-width="0.4" x1="0" x2="0" y1="-8.8" y2="38.8"/><line stroke="#C4C4BD" stroke-width="0.4" x1="10" x2="10" y1="-8.8" y2="38.8"/><line stroke="#C4C4BD" stroke-width="0.4" x1="20" x2="20" y1="-8.8" y2="38.8"/><line stroke="#C4C4BD" stroke-width="0.4" x1="-8.8" x2="28.8" y1="0" y2="0"/><line stroke="#C4C4BD" stroke-width="0.4" x1="-8.8" x2="28.8" y1="10" y2="10"/><line stroke="#C4C4BD" stroke-width="0.4" x1="-8.8" x2="28.8" y1="20" y2="20"/><line stroke="#C4C4BD" stroke-width="0.4" x1="-8.8" x2="28.8" y1="30" y2="30"/></g><g class="cv-polygons"/><g class="cv-hull"/><g class="cv-lines"/><g class="cv-segments"/><g class="cv-crossings"/><g class="cv-points"><circle cx="0" cy="0" fill="#EDEDEA" r="1.5" stroke="#C4C4BD" stroke-width="0.42"/><text dominant-baseline="auto" fill="#1A1A1A" font-family="'KaTeX_Main', 'Latin Modern Math', serif" font-size="3" font-style="italic" text-anchor="end" x="-1.61" y="-2.41">A</text><circle cx="10" cy="0" fill="#EDEDEA" r="1.5" stroke="#C4C4BD" stroke-width="0.42"/><text dominant-baseline="auto" fill="#1A1A1A" font-family="'KaTeX_Main', 'Latin Modern Math', serif" font-size="3" font-style="italic" text-anchor="middle" x="10.48" y="-2.86">B</text><circle cx="0" cy="10" fill="#EDEDEA" r="1.5" stroke="#C4C4BD" stroke-width="0.42"/><text dominant-baseline="central" fill="#1A1A1A" font-family="'KaTeX_Main', 'Latin Modern Math', serif" font-size="3" font-style="italic" text-anchor="end" x="-2.81" y="9.3">C</text><circle cx="20" cy="20" fill="#EDEDEA" r="1.5" stroke="#C4C4BD" stroke-width="0.42"/><text dominant-baseline="hanging" fill="#1A1A1A" font-family="'KaTeX_Main', 'Latin Modern Math', serif" font-size="3" font-style="italic" text-anchor="start" x="22.41" y="21.61">D</text><circle cx="10" cy="30" fill="#EDEDEA" r="1.5" stroke="#C4C4BD" stroke-width="0.42"/><text dominant-baseline="hanging" fill="#1A1A1A" font-family="'KaTeX_Main', 'Latin Modern Math', serif" font-size="3" font-style="italic" text-anchor="middle" x="10.32" y="32.88">E</text></g></svg>