<svg viewBox="-3 -3 80.069 33.446" xmlns="http://www.w3.org/2000/svg"><rect fill="#FDFDFC" height="33.446" width="80.069" x="-3" y="-3"/><defs><pattern height="8" id="cv-pat-1" patternUnits="userSpaceOnUse" width="8"><rect fill="#0072B2" height="8" width="8"/></pattern><pattern height="8" id="cv-pat-2" patternUnits="userSpaceOnUse" width="8"><rect fill="#9ED9F5" height="8" width="8"/><line stroke="#3E8BB5" stroke-width="1.2" x1="0" x2="8" y1="8" y2="0"/><line stroke="#3E8BB5" stroke-width="1.2" x1="-1" x2="1" y1="1" y2="-1"/><line stroke="#3E8BB5" stroke-width="1.2" x1="7" x2="9" y1="9" y2="7"/></pattern><pattern height="8" id="cv-pat-3" patternUnits="userSpaceOnUse" width="8"><rect fill="#D55E00" height="8" width="8"/><line stroke="#8A3D00" stroke-width="1.2" x1="0" x2="8" y1="0" y2="8"/><line stroke="#8A3D00" stroke-width="1.2" x1="-1" x2="1" y1="7" y2="9"/><line stroke="#8A3D00" stroke-width="1.2" x1="7" x2="9" y1="-1" y2="1"/></pattern><pattern height="8" id="cv-pat-4" patternUnits="userSpaceOnUse" width="8"><rect fill="#009E73" height="8" width="8"/><circle cx="4" cy="4" fill="#006147" r="1.4"/></pattern><pattern height="8" id="cv-pat-5" patternUnits="userSpaceOnUse" width="8"><rect fill="#E69F00" height="8" width="8"/><line stroke="#9A6B00" stroke-width="1.2" x1="0" x2="8" y1="4" y2="4"/><line stroke="#9A6B00" stroke-width="1.2" x1="4" x2="4" y1="0" y2="8"/></pattern><pattern height="8" id="cv-pat-6" patternUnits="userSpaceOnUse" width="8"><rect fill="#CC79A7" height="8" width="8"/><line stroke="#8A4E70" stroke-width="1.2" x1="0" x2="8" y1="4" y2="4"/></pattern><pattern height="8" id="cv-pat-7" patternUnits="userSpaceOnUse" width="8"><rect fill="#F0E442" height="8" width="8"/><line stroke="#9C9400" stroke-width="1.2" x1="4" x2="4" y1="0" y2="8"/></pattern><pattern height="8" id="cv-pat-8" patternUnits="userSpaceOnUse" width="8"><rect fill="#3A3A3A" height="8" width="8"/><line stroke="#000000" stroke-width="1.2" x1="0" x2="8" y1="0" y2="8"/><line stroke="#000000" stroke-width="1.2" x1="0" x2="8" y1="8" y2="0"/></pattern></defs><g class="cv-algebra"><g class="cv-alg-row"><text data-el="r0-e3" fill="#1A1A17" font-family="'KaTeX_Main', 'Latin Modern Math', serif" font-size="5" x="0" y="4.192">C</text><text data-el="r0-e2" fill="#1A1A17" font-family="'KaTeX_Main', 'Latin Modern Math', serif" font-size="3.4" font-style="italic" x="3.61" y="2.448">k</text><text data-el="r0-e1" fill="#1A1A17" font-family="'KaTeX_Main', 'Latin Modern Math', serif" font-size="3.4" font-style="italic" x="3.61" y="6.312">n</text><g><rect fill="none" height="3.864" rx="0.6" width="2.164" x="3.31" y="-0.3"/></g><g><rect fill="none" height="3.864" rx="0.6" width="2.511" x="3.31" y="3.564"/></g><g><rect fill="none" height="7.728" rx="0.6" width="6.121" x="-0.3" y="-0.3"/></g><g><rect fill="none" height="8.328" rx="0.8" width="6.721" x="-0.6" y="-0.6"/></g></g><g class="cv-alg-row"><text data-el="r1-e1" fill="#1A1A17" font-family="'KaTeX_Main', 'Latin Modern Math', serif" font-size="4.1" font-style="italic" x="7.648" y="12.88">n</text><text data-el="r1-e6" fill="#1A1A17" font-family="'KaTeX_Main', 'Latin Modern Math', serif" font-size="4.1" x="9.952" y="12.88">!</text><text data-el="r1-e2" fill="#1A1A17" font-family="'KaTeX_Main', 'Latin Modern Math', serif" font-size="4.1" font-style="italic" x="1.1" y="18.862">k</text><text data-el="r1-e7" fill="#1A1A17" font-family="'KaTeX_Main', 'Latin Modern Math', serif" font-size="4.1" x="2.986" y="18.862">!</text><text data-el="r1-e11" fill="#1A1A17" font-family="'KaTeX_Main', 'Latin Modern Math', serif" font-size="4.1" x="4.126" y="18.739">(</text><text data-el="r1-e4" fill="#1A1A17" font-family="'KaTeX_Main', 'Latin Modern Math', serif" font-size="4.1" font-style="italic" x="5.721" y="18.862">n</text><text data-el="r1-e10" fill="#1A1A17" font-family="'KaTeX_Main', 'Latin Modern Math', serif" font-size="4.1" x="8.927" y="18.862">−</text><text data-el="r1-e5" fill="#1A1A17" font-family="'KaTeX_Main', 'Latin Modern Math', serif" font-size="4.1" font-style="italic" x="13.019" y="18.862">k</text><text data-el="r1-e11" fill="#1A1A17" font-family="'KaTeX_Main', 'Latin Modern Math', serif" font-size="4.1" x="14.905" y="18.739">)</text><text data-el="r1-e11" fill="#1A1A17" font-family="'KaTeX_Main', 'Latin Modern Math', serif" font-size="4.1" x="16.5" y="18.862">!</text><line data-el="r1-e13" stroke="#1A1A17" stroke-linecap="round" stroke-width="0.375" x1="0" x2="18.739" y1="14.764" y2="14.764"/><g><rect fill="none" height="4.536" rx="0.6" width="2.904" x="7.348" y="9.628"/></g><g><rect fill="none" height="4.536" rx="0.6" width="4.044" x="7.348" y="9.628"/></g><g><rect fill="none" height="4.536" rx="0.6" width="2.486" x="0.8" y="15.61"/></g><g><rect fill="none" height="4.536" rx="0.6" width="3.626" x="0.8" y="15.61"/></g><g><rect fill="none" height="4.536" rx="0.6" width="2.904" x="5.421" y="15.61"/></g><g><rect fill="none" height="4.536" rx="0.6" width="2.486" x="12.719" y="15.61"/></g><g><rect fill="none" height="4.536" rx="0.6" width="9.784" x="5.421" y="15.61"/></g><g><rect fill="none" height="4.782" rx="0.6" width="14.114" x="3.826" y="15.364"/></g><g><rect fill="none" height="4.782" rx="0.6" width="17.139" x="0.8" y="15.364"/></g><g><rect fill="none" height="10.518" rx="0.6" width="19.339" x="-0.3" y="9.628"/></g><g><rect fill="none" height="11.118" rx="0.8" width="19.939" x="-0.6" y="9.328"/></g><text data-el="row1" fill="#C4C4BD" font-family="'Inter', 'Segoe UI', system-ui, sans-serif" font-size="3.1" x="29.739" y="17.069">viết tổ hợp bằng giai thừa</text></g><text fill="#C5221F" font-family="'Inter', 'Segoe UI', system-ui, sans-serif" font-size="3" x="0" y="25.046">với 0 ≤ k ≤ n</text></g></svg>