<svg viewBox="-3 -3 45.75 54.25" xmlns="http://www.w3.org/2000/svg"><rect fill="#FDFDFC" height="54.25" width="45.75" x="-3" y="-3"/><defs><pattern height="8" id="cv-pat-1" patternUnits="userSpaceOnUse" width="8"><rect fill="#0072B2" height="8" width="8"/></pattern><pattern height="8" id="cv-pat-2" patternUnits="userSpaceOnUse" width="8"><rect fill="#9ED9F5" height="8" width="8"/><line stroke="#3E8BB5" stroke-width="1.2" x1="0" x2="8" y1="8" y2="0"/><line stroke="#3E8BB5" stroke-width="1.2" x1="-1" x2="1" y1="1" y2="-1"/><line stroke="#3E8BB5" stroke-width="1.2" x1="7" x2="9" y1="9" y2="7"/></pattern><pattern height="8" id="cv-pat-3" patternUnits="userSpaceOnUse" width="8"><rect fill="#D55E00" height="8" width="8"/><line stroke="#8A3D00" stroke-width="1.2" x1="0" x2="8" y1="0" y2="8"/><line stroke="#8A3D00" stroke-width="1.2" x1="-1" x2="1" y1="7" y2="9"/><line stroke="#8A3D00" stroke-width="1.2" x1="7" x2="9" y1="-1" y2="1"/></pattern><pattern height="8" id="cv-pat-4" patternUnits="userSpaceOnUse" width="8"><rect fill="#009E73" height="8" width="8"/><circle cx="4" cy="4" fill="#006147" r="1.4"/></pattern><pattern height="8" id="cv-pat-5" patternUnits="userSpaceOnUse" width="8"><rect fill="#E69F00" height="8" width="8"/><line stroke="#9A6B00" stroke-width="1.2" x1="0" x2="8" y1="4" y2="4"/><line stroke="#9A6B00" stroke-width="1.2" x1="4" x2="4" y1="0" y2="8"/></pattern><pattern height="8" id="cv-pat-6" patternUnits="userSpaceOnUse" width="8"><rect fill="#CC79A7" height="8" width="8"/><line stroke="#8A4E70" stroke-width="1.2" x1="0" x2="8" y1="4" y2="4"/></pattern><pattern height="8" id="cv-pat-7" patternUnits="userSpaceOnUse" width="8"><rect fill="#F0E442" height="8" width="8"/><line stroke="#9C9400" stroke-width="1.2" x1="4" x2="4" y1="0" y2="8"/></pattern><pattern height="8" id="cv-pat-8" patternUnits="userSpaceOnUse" width="8"><rect fill="#3A3A3A" height="8" width="8"/><line stroke="#000000" stroke-width="1.2" x1="0" x2="8" y1="0" y2="8"/><line stroke="#000000" stroke-width="1.2" x1="0" x2="8" y1="8" y2="0"/></pattern></defs><g class="cv-longdiv"><path d="M13.4 15.5L13.4 6.75L39.75 6.75" fill="none" stroke="#1A1A17" stroke-linecap="round" stroke-linejoin="round" stroke-width="0.72"/><line stroke="#C4C4BD" stroke-linecap="round" stroke-width="0.64" x1="15.55" x2="32" y1="23" y2="23"/><line stroke="#C4C4BD" stroke-linecap="round" stroke-width="0.64" x1="21.1" x2="40.6" y1="39.5" y2="39.5"/><path d="M36.3 15.5L36.3 24M34.9 22.6L36.3 24L37.7 22.6" fill="none" stroke="#2A2A26" stroke-linecap="round" stroke-linejoin="round" stroke-width="0.64"/><g class="cv-ld-quotient"><g><text fill="#1A1A17" font-family="'KaTeX_Main', 'Latin Modern Math', serif" font-size="5" font-style="italic" x="21.95" y="5">x</text><rect fill="none" height="5.25" rx="0.6" width="3.1" x="21.55" y="1.1"/></g><g><text fill="#1A1A17" font-family="'KaTeX_Main', 'Latin Modern Math', serif" font-size="5" font-style="italic" x="32.85" y="5">+ 3</text><rect fill="none" height="5.25" rx="0.6" width="7.7" x="32.45" y="1.1"/></g><rect fill="none" height="5.6" rx="0.8" width="19" x="21.35" y="0.9"/></g><g class="cv-ld-dividend"><g><text fill="#1A1A17" font-family="'KaTeX_Main', 'Latin Modern Math', serif" font-size="5" font-style="italic" x="16.4" y="13.25">x</text><text fill="#1A1A17" font-family="'KaTeX_Main', 'Latin Modern Math', serif" font-size="3.1" font-style="italic" x="18.7" y="11.15">2</text><rect fill="none" height="5.25" rx="0.6" width="4.65" x="16" y="9.35"/></g><g><text fill="#1A1A17" font-family="'KaTeX_Main', 'Latin Modern Math', serif" font-size="5" font-style="italic" x="21.95" y="13.25">+ 5x</text><rect fill="none" height="5.25" rx="0.6" width="10" x="21.55" y="9.35"/></g><g><text fill="#1A1A17" font-family="'KaTeX_Main', 'Latin Modern Math', serif" font-size="5" font-style="italic" x="32.85" y="13.25">+ 6</text><rect fill="none" height="5.25" rx="0.6" width="7.7" x="32.45" y="9.35"/></g><rect fill="none" height="5.6" rx="0.8" width="24.55" x="15.8" y="9.15"/></g><g class="cv-ld-divisor"><g><text fill="#1A1A17" font-family="'KaTeX_Main', 'Latin Modern Math', serif" font-size="5" font-style="italic" x="0" y="13.25">x</text><rect fill="none" height="5.25" rx="0.6" width="3.1" x="-0.4" y="9.35"/></g><g><text fill="#1A1A17" font-family="'KaTeX_Main', 'Latin Modern Math', serif" font-size="5" font-style="italic" x="4" y="13.25">+ 2</text><rect fill="none" height="5.25" rx="0.6" width="7.7" x="3.6" y="9.35"/></g><rect fill="none" height="5.6" rx="0.8" width="12.1" x="-0.6" y="9.15"/></g><g class="cv-ld-sub"><g><text fill="#1A1A17" font-family="'KaTeX_Main', 'Latin Modern Math', serif" font-size="5" font-style="italic" x="16.4" y="21.5">x</text><text fill="#1A1A17" font-family="'KaTeX_Main', 'Latin Modern Math', serif" font-size="3.1" font-style="italic" x="18.7" y="19.4">2</text><rect fill="none" height="5.25" rx="0.6" width="4.65" x="16" y="17.6"/></g><g><text fill="#1A1A17" font-family="'KaTeX_Main', 'Latin Modern Math', serif" font-size="5" font-style="italic" x="21.95" y="21.5">+ 2x</text><rect fill="none" height="5.25" rx="0.6" width="10" x="21.55" y="17.6"/></g><rect fill="none" height="5.6" rx="0.8" width="15.95" x="15.8" y="17.4"/></g><g class="cv-ld-rest"><g><text fill="#1A1A17" font-family="'KaTeX_Main', 'Latin Modern Math', serif" font-size="5" font-style="italic" x="21.95" y="29.75">3x</text><rect fill="none" height="5.25" rx="0.6" width="5.6" x="21.55" y="25.85"/></g><g><text fill="#1A1A17" font-family="'KaTeX_Main', 'Latin Modern Math', serif" font-size="5" font-style="italic" x="32.85" y="29.75">+ 6</text><rect fill="none" height="5.25" rx="0.6" width="7.7" x="32.45" y="25.85"/></g><rect fill="none" height="5.6" rx="0.8" width="19" x="21.35" y="25.65"/></g><g class="cv-ld-sub"><g><text fill="#1A1A17" font-family="'KaTeX_Main', 'Latin Modern Math', serif" font-size="5" font-style="italic" x="21.95" y="38">3x</text><rect fill="none" height="5.25" rx="0.6" width="5.6" x="21.55" y="34.1"/></g><g><text fill="#1A1A17" font-family="'KaTeX_Main', 'Latin Modern Math', serif" font-size="5" font-style="italic" x="32.85" y="38">+ 6</text><rect fill="none" height="5.25" rx="0.6" width="7.7" x="32.45" y="34.1"/></g><rect fill="none" height="5.6" rx="0.8" width="19" x="21.35" y="33.9"/></g><g class="cv-ld-remainder"><g><text fill="#1A1A17" font-family="'KaTeX_Main', 'Latin Modern Math', serif" font-size="5" font-style="italic" x="32.85" y="46.25">0</text><rect fill="none" height="5.25" rx="0.6" width="3.3" x="32.45" y="42.35"/></g><rect fill="none" height="5.6" rx="0.8" width="3.7" x="32.25" y="42.15"/></g></g></svg>