<svg viewBox="-3 -3 92.58 57.687" xmlns="http://www.w3.org/2000/svg"><rect fill="#FDFDFC" height="57.687" width="92.58" x="-3" y="-3"/><defs><pattern height="8" id="cv-pat-1" patternUnits="userSpaceOnUse" width="8"><rect fill="#0072B2" height="8" width="8"/></pattern><pattern height="8" id="cv-pat-2" patternUnits="userSpaceOnUse" width="8"><rect fill="#9ED9F5" height="8" width="8"/><line stroke="#3E8BB5" stroke-width="1.2" x1="0" x2="8" y1="8" y2="0"/><line stroke="#3E8BB5" stroke-width="1.2" x1="-1" x2="1" y1="1" y2="-1"/><line stroke="#3E8BB5" stroke-width="1.2" x1="7" x2="9" y1="9" y2="7"/></pattern><pattern height="8" id="cv-pat-3" patternUnits="userSpaceOnUse" width="8"><rect fill="#D55E00" height="8" width="8"/><line stroke="#8A3D00" stroke-width="1.2" x1="0" x2="8" y1="0" y2="8"/><line stroke="#8A3D00" stroke-width="1.2" x1="-1" x2="1" y1="7" y2="9"/><line stroke="#8A3D00" stroke-width="1.2" x1="7" x2="9" y1="-1" y2="1"/></pattern><pattern height="8" id="cv-pat-4" patternUnits="userSpaceOnUse" width="8"><rect fill="#009E73" height="8" width="8"/><circle cx="4" cy="4" fill="#006147" r="1.4"/></pattern><pattern height="8" id="cv-pat-5" patternUnits="userSpaceOnUse" width="8"><rect fill="#E69F00" height="8" width="8"/><line stroke="#9A6B00" stroke-width="1.2" x1="0" x2="8" y1="4" y2="4"/><line stroke="#9A6B00" stroke-width="1.2" x1="4" x2="4" y1="0" y2="8"/></pattern><pattern height="8" id="cv-pat-6" patternUnits="userSpaceOnUse" width="8"><rect fill="#CC79A7" height="8" width="8"/><line stroke="#8A4E70" stroke-width="1.2" x1="0" x2="8" y1="4" y2="4"/></pattern><pattern height="8" id="cv-pat-7" patternUnits="userSpaceOnUse" width="8"><rect fill="#F0E442" height="8" width="8"/><line stroke="#9C9400" stroke-width="1.2" x1="4" x2="4" y1="0" y2="8"/></pattern><pattern height="8" id="cv-pat-8" patternUnits="userSpaceOnUse" width="8"><rect fill="#3A3A3A" height="8" width="8"/><line stroke="#000000" stroke-width="1.2" x1="0" x2="8" y1="0" y2="8"/><line stroke="#000000" stroke-width="1.2" x1="0" x2="8" y1="8" y2="0"/></pattern></defs><g class="cv-algebra"><g class="cv-alg-row"><text data-el="r0-e6" fill="#1A1A17" font-family="'KaTeX_Size1', 'KaTeX_Size2', 'Latin Modern Math', serif" font-size="7.5" x="0" y="9.364">∑</text><text data-el="r0-e2" fill="#1A1A17" font-family="'KaTeX_Main', 'Latin Modern Math', serif" font-size="3.4" x="3.11" y="2.448">4</text><text data-el="r0-e6" fill="#1A1A17" font-family="'KaTeX_Main', 'Latin Modern Math', serif" font-size="3.4" font-style="italic" x="0.597" y="14.312">k</text><text data-el="r0-e6" fill="#1A1A17" font-family="'KaTeX_Main', 'Latin Modern Math', serif" font-size="3.4" x="2.569" y="14.312">=</text><text data-el="r0-e1" fill="#1A1A17" font-family="'KaTeX_Main', 'Latin Modern Math', serif" font-size="3.4" x="5.623" y="14.312">1</text><text data-el="r0-e3" fill="#1A1A17" font-family="'KaTeX_Main', 'Latin Modern Math', serif" font-size="5" x="9.02" y="9.364">3</text><text data-el="r0-e4" fill="#1A1A17" font-family="'KaTeX_Main', 'Latin Modern Math', serif" font-size="5" font-style="italic" x="11.52" y="9.364">k</text><g><rect fill="none" height="3.864" rx="0.6" width="2.3" x="2.81" y="-0.3"/></g><g><rect fill="none" height="3.864" rx="0.6" width="2.3" x="5.323" y="11.564"/></g><g><rect fill="none" height="5.4" rx="0.6" width="3.1" x="8.72" y="5.464"/></g><g><rect fill="none" height="5.4" rx="0.6" width="2.9" x="11.22" y="5.464"/></g><g><rect fill="none" height="5.4" rx="0.6" width="5.4" x="8.72" y="5.464"/></g><g><rect fill="none" height="15.728" rx="0.6" width="14.42" x="-0.3" y="-0.3"/></g><g><rect fill="none" height="16.328" rx="0.8" width="15.02" x="-0.6" y="-0.6"/></g></g><g class="cv-alg-row"><text data-el="r1-e3" fill="#1A1A17" font-family="'KaTeX_Main', 'Latin Modern Math', serif" font-size="5" x="0" y="27.292">3</text><text data-el="r1-e8" fill="#1A1A17" font-family="'KaTeX_Size4', serif" font-size="5" x="2.5" y="27.142">(</text><text data-el="r1-e7" fill="#1A1A17" font-family="'KaTeX_Size1', 'KaTeX_Size2', 'Latin Modern Math', serif" font-size="7.5" x="6.46" y="27.292">∑</text><text data-el="r1-e2" fill="#1A1A17" font-family="'KaTeX_Main', 'Latin Modern Math', serif" font-size="3.4" x="9.57" y="20.376">4</text><text data-el="r1-e7" fill="#1A1A17" font-family="'KaTeX_Main', 'Latin Modern Math', serif" font-size="3.4" font-style="italic" x="7.057" y="32.24">k</text><text data-el="r1-e7" fill="#1A1A17" font-family="'KaTeX_Main', 'Latin Modern Math', serif" font-size="3.4" x="9.029" y="32.24">=</text><text data-el="r1-e1" fill="#1A1A17" font-family="'KaTeX_Main', 'Latin Modern Math', serif" font-size="3.4" x="12.083" y="32.24">1</text><text data-el="r1-e4" fill="#1A1A17" font-family="'KaTeX_Main', 'Latin Modern Math', serif" font-size="5" font-style="italic" x="15.48" y="27.292">k</text><text data-el="r1-e8" fill="#1A1A17" font-family="'KaTeX_Size4', serif" font-size="5" x="17.78" y="27.142">)</text><g><rect fill="none" height="5.4" rx="0.6" width="3.1" x="-0.3" y="23.392"/></g><g><rect fill="none" height="3.864" rx="0.6" width="2.3" x="9.27" y="17.628"/></g><g><rect fill="none" height="3.864" rx="0.6" width="2.3" x="11.783" y="29.492"/></g><g><rect fill="none" height="5.4" rx="0.6" width="2.9" x="15.18" y="23.392"/></g><g><rect fill="none" height="15.728" rx="0.6" width="11.92" x="6.16" y="17.628"/></g><g><rect fill="none" height="16.059" rx="0.6" width="22.34" x="-0.3" y="17.628"/></g><g><rect fill="none" height="16.659" rx="0.8" width="22.94" x="-0.6" y="17.328"/></g><text data-el="row1" fill="#C4C4BD" font-family="'Inter', 'Segoe UI', system-ui, sans-serif" font-size="3.1" x="45.66" y="29.058">tính tuyến tính của tổng</text></g><g class="cv-alg-row"><text data-el="r2-e3" fill="#1A1A17" font-family="'KaTeX_Main', 'Latin Modern Math', serif" font-size="5" x="0" y="40.087">3</text><text data-el="r2-e8" fill="#1A1A17" font-family="'KaTeX_Main', 'Latin Modern Math', serif" font-size="5" x="2.5" y="39.937">(</text><text data-el="r2-e11" fill="#1A1A17" font-family="'KaTeX_Main', 'Latin Modern Math', serif" font-size="5" x="4.445" y="40.087">1</text><text data-el="r2-e21" fill="#1A1A17" font-family="'KaTeX_Main', 'Latin Modern Math', serif" font-size="5" x="8.045" y="40.087">+</text><text data-el="r2-e14" fill="#1A1A17" font-family="'KaTeX_Main', 'Latin Modern Math', serif" font-size="5" x="13.035" y="40.087">2</text><text data-el="r2-e21" fill="#1A1A17" font-family="'KaTeX_Main', 'Latin Modern Math', serif" font-size="5" x="16.635" y="40.087">+</text><text data-el="r2-e17" fill="#1A1A17" font-family="'KaTeX_Main', 'Latin Modern Math', serif" font-size="5" x="21.625" y="40.087">3</text><text data-el="r2-e21" fill="#1A1A17" font-family="'KaTeX_Main', 'Latin Modern Math', serif" font-size="5" x="25.225" y="40.087">+</text><text data-el="r2-e20" fill="#1A1A17" font-family="'KaTeX_Main', 'Latin Modern Math', serif" font-size="5" x="30.215" y="40.087">4</text><text data-el="r2-e8" fill="#1A1A17" font-family="'KaTeX_Main', 'Latin Modern Math', serif" font-size="5" x="32.715" y="39.937">)</text><g><rect fill="none" height="5.4" rx="0.6" width="3.1" x="-0.3" y="36.187"/></g><g><rect fill="none" height="5.4" rx="0.6" width="3.1" x="4.145" y="36.187"/></g><g><rect fill="none" height="5.4" rx="0.6" width="3.1" x="12.735" y="36.187"/></g><g><rect fill="none" height="5.4" rx="0.6" width="3.1" x="21.325" y="36.187"/></g><g><rect fill="none" height="5.4" rx="0.6" width="3.1" x="29.915" y="36.187"/></g><g><rect fill="none" height="5.4" rx="0.6" width="28.87" x="4.145" y="36.187"/></g><g><rect fill="none" height="5.7" rx="0.6" width="35.26" x="-0.3" y="35.887"/></g><g><rect fill="none" height="6.3" rx="0.8" width="35.86" x="-0.6" y="35.587"/></g><text data-el="row2" fill="#C4C4BD" font-family="'Inter', 'Segoe UI', system-ui, sans-serif" font-size="3.1" x="45.66" y="39.859">viết hết các hạng tử</text></g><g class="cv-alg-row"><text data-el="r3-e3" fill="#1A1A17" font-family="'KaTeX_Main', 'Latin Modern Math', serif" font-size="5" x="0" y="47.687">3</text><text data-el="r3-e8" fill="#1A1A17" font-family="'KaTeX_Main', 'Latin Modern Math', serif" font-size="5" x="2.8" y="47.687">⋅</text><text data-el="r3-e22" fill="#1A1A17" font-family="'KaTeX_Main', 'Latin Modern Math', serif" font-size="5" x="4.49" y="47.687">10</text><g><rect fill="none" height="5.4" rx="0.6" width="3.1" x="-0.3" y="43.787"/></g><g><rect fill="none" height="5.4" rx="0.6" width="5.6" x="4.19" y="43.787"/></g><g><rect fill="none" height="5.4" rx="0.6" width="10.09" x="-0.3" y="43.787"/></g><g><rect fill="none" height="6" rx="0.8" width="10.69" x="-0.6" y="43.487"/></g><text data-el="row3" fill="#C4C4BD" font-family="'Inter', 'Segoe UI', system-ui, sans-serif" font-size="3.1" x="45.66" y="47.543">tính ra số</text></g></g></svg>