<svg viewBox="-22.9 -17.3 65.8 34.6" xmlns="http://www.w3.org/2000/svg"><rect fill="#FDFDFC" height="34.6" width="65.8" x="-22.9" y="-17.3"/><defs><pattern height="8" id="cv-pat-1" patternUnits="userSpaceOnUse" width="8"><rect fill="#0072B2" height="8" width="8"/></pattern><pattern height="8" id="cv-pat-2" patternUnits="userSpaceOnUse" width="8"><rect fill="#9ED9F5" height="8" width="8"/><line stroke="#3E8BB5" stroke-width="1.2" x1="0" x2="8" y1="8" y2="0"/><line stroke="#3E8BB5" stroke-width="1.2" x1="-1" x2="1" y1="1" y2="-1"/><line stroke="#3E8BB5" stroke-width="1.2" x1="7" x2="9" y1="9" y2="7"/></pattern><pattern height="8" id="cv-pat-3" patternUnits="userSpaceOnUse" width="8"><rect fill="#D55E00" height="8" width="8"/><line stroke="#8A3D00" stroke-width="1.2" x1="0" x2="8" y1="0" y2="8"/><line stroke="#8A3D00" stroke-width="1.2" x1="-1" x2="1" y1="7" y2="9"/><line stroke="#8A3D00" stroke-width="1.2" x1="7" x2="9" y1="-1" y2="1"/></pattern><pattern height="8" id="cv-pat-4" patternUnits="userSpaceOnUse" width="8"><rect fill="#009E73" height="8" width="8"/><circle cx="4" cy="4" fill="#006147" r="1.4"/></pattern><pattern height="8" id="cv-pat-5" patternUnits="userSpaceOnUse" width="8"><rect fill="#E69F00" height="8" width="8"/><line stroke="#9A6B00" stroke-width="1.2" x1="0" x2="8" y1="4" y2="4"/><line stroke="#9A6B00" stroke-width="1.2" x1="4" x2="4" y1="0" y2="8"/></pattern><pattern height="8" id="cv-pat-6" patternUnits="userSpaceOnUse" width="8"><rect fill="#CC79A7" height="8" width="8"/><line stroke="#8A4E70" stroke-width="1.2" x1="0" x2="8" y1="4" y2="4"/></pattern><pattern height="8" id="cv-pat-7" patternUnits="userSpaceOnUse" width="8"><rect fill="#F0E442" height="8" width="8"/><line stroke="#9C9400" stroke-width="1.2" x1="4" x2="4" y1="0" y2="8"/></pattern><pattern height="8" id="cv-pat-8" patternUnits="userSpaceOnUse" width="8"><rect fill="#3A3A3A" height="8" width="8"/><line stroke="#000000" stroke-width="1.2" x1="0" x2="8" y1="0" y2="8"/><line stroke="#000000" stroke-width="1.2" x1="0" x2="8" y1="8" y2="0"/></pattern></defs><g class="cv-edge-labels"/><g class="cv-edges"><path d="M0 0L-10 -9" fill="none" stroke="#1A1A1A" stroke-linecap="round" stroke-width="0.42"/><path d="M0 0L-13 0" fill="none" stroke="#1A1A1A" stroke-linecap="round" stroke-width="0.42"/><path d="M0 0L-10 9" fill="none" stroke="#1A1A1A" stroke-linecap="round" stroke-width="0.42"/><path d="M0 0L11 0" fill="none" stroke="#1A1A1A" stroke-linecap="round" stroke-width="0.42"/><path d="M11 0L22 0" fill="none" stroke="#1A1A1A" stroke-linecap="round" stroke-width="0.42"/><path d="M22 0L33 0" fill="none" stroke="#1A1A1A" stroke-linecap="round" stroke-width="0.42"/></g><g class="cv-vertices"><circle cx="0" cy="0" fill="#EDEDEA" r="2.3" stroke="#1A1A1A" stroke-width="0.42"/><text dominant-baseline="auto" fill="#1A1A1A" font-family="'KaTeX_Main', 'Latin Modern Math', serif" font-size="2.415" font-style="italic" text-anchor="start" x="1.22" y="-3.17">a</text><text fill="#C4C4BD" font-family="'Inter', 'Segoe UI', system-ui, sans-serif" font-size="2.53" text-anchor="end" x="-3.7" y="2.3">4</text><circle cx="-10" cy="-9" fill="#EDEDEA" r="2.3" stroke="#1A1A1A" stroke-width="0.42"/><text dominant-baseline="auto" fill="#1A1A1A" font-family="'KaTeX_Main', 'Latin Modern Math', serif" font-size="2.415" font-style="italic" text-anchor="end" x="-12.53" y="-11.27">p</text><text fill="#C4C4BD" font-family="'Inter', 'Segoe UI', system-ui, sans-serif" font-size="2.53" text-anchor="start" x="-6.3" y="-6.7">1</text><circle cx="-13" cy="0" fill="#EDEDEA" r="2.3" stroke="#1A1A1A" stroke-width="0.42"/><text dominant-baseline="central" fill="#1A1A1A" font-family="'KaTeX_Main', 'Latin Modern Math', serif" font-size="2.415" font-style="italic" text-anchor="end" x="-16.4" y="0">q</text><text fill="#C4C4BD" font-family="'Inter', 'Segoe UI', system-ui, sans-serif" font-size="2.53" text-anchor="start" x="-9.3" y="2.3">1</text><circle cx="-10" cy="9" fill="#EDEDEA" r="2.3" stroke="#1A1A1A" stroke-width="0.42"/><text dominant-baseline="hanging" fill="#1A1A1A" font-family="'KaTeX_Main', 'Latin Modern Math', serif" font-size="2.415" font-style="italic" text-anchor="end" x="-12.53" y="11.27">r</text><text fill="#C4C4BD" font-family="'Inter', 'Segoe UI', system-ui, sans-serif" font-size="2.53" text-anchor="start" x="-6.3" y="11.3">1</text><circle cx="11" cy="0" fill="#EDEDEA" r="2.3" stroke="#1A1A1A" stroke-width="0.42"/><text dominant-baseline="hanging" fill="#1A1A1A" font-family="'KaTeX_Main', 'Latin Modern Math', serif" font-size="2.415" font-style="italic" text-anchor="middle" x="11" y="3.4">b</text><text fill="#C4C4BD" font-family="'Inter', 'Segoe UI', system-ui, sans-serif" font-size="2.53" text-anchor="start" x="14.7" y="2.3">2</text><circle cx="22" cy="0" fill="#EDEDEA" r="2.3" stroke="#1A1A1A" stroke-width="0.42"/><text dominant-baseline="hanging" fill="#1A1A1A" font-family="'KaTeX_Main', 'Latin Modern Math', serif" font-size="2.415" font-style="italic" text-anchor="middle" x="22" y="3.4">c</text><text fill="#C4C4BD" font-family="'Inter', 'Segoe UI', system-ui, sans-serif" font-size="2.53" text-anchor="start" x="25.7" y="2.3">2</text><circle cx="33" cy="0" fill="#EDEDEA" r="2.3" stroke="#1A1A1A" stroke-width="0.42"/><text dominant-baseline="central" fill="#1A1A1A" font-family="'KaTeX_Main', 'Latin Modern Math', serif" font-size="2.415" font-style="italic" text-anchor="start" x="36.4" y="0">d</text><text fill="#C4C4BD" font-family="'Inter', 'Segoe UI', system-ui, sans-serif" font-size="2.53" text-anchor="end" x="29.3" y="2.3">1</text></g></svg>