<svg viewBox="-3 -3 84.209 56.139" xmlns="http://www.w3.org/2000/svg"><rect fill="#FDFDFC" height="56.139" width="84.209" x="-3" y="-3"/><defs><pattern height="8" id="cv-pat-1" patternUnits="userSpaceOnUse" width="8"><rect fill="#0072B2" height="8" width="8"/></pattern><pattern height="8" id="cv-pat-2" patternUnits="userSpaceOnUse" width="8"><rect fill="#9ED9F5" height="8" width="8"/><line stroke="#3E8BB5" stroke-width="1.2" x1="0" x2="8" y1="8" y2="0"/><line stroke="#3E8BB5" stroke-width="1.2" x1="-1" x2="1" y1="1" y2="-1"/><line stroke="#3E8BB5" stroke-width="1.2" x1="7" x2="9" y1="9" y2="7"/></pattern><pattern height="8" id="cv-pat-3" patternUnits="userSpaceOnUse" width="8"><rect fill="#D55E00" height="8" width="8"/><line stroke="#8A3D00" stroke-width="1.2" x1="0" x2="8" y1="0" y2="8"/><line stroke="#8A3D00" stroke-width="1.2" x1="-1" x2="1" y1="7" y2="9"/><line stroke="#8A3D00" stroke-width="1.2" x1="7" x2="9" y1="-1" y2="1"/></pattern><pattern height="8" id="cv-pat-4" patternUnits="userSpaceOnUse" width="8"><rect fill="#009E73" height="8" width="8"/><circle cx="4" cy="4" fill="#006147" r="1.4"/></pattern><pattern height="8" id="cv-pat-5" patternUnits="userSpaceOnUse" width="8"><rect fill="#E69F00" height="8" width="8"/><line stroke="#9A6B00" stroke-width="1.2" x1="0" x2="8" y1="4" y2="4"/><line stroke="#9A6B00" stroke-width="1.2" x1="4" x2="4" y1="0" y2="8"/></pattern><pattern height="8" id="cv-pat-6" patternUnits="userSpaceOnUse" width="8"><rect fill="#CC79A7" height="8" width="8"/><line stroke="#8A4E70" stroke-width="1.2" x1="0" x2="8" y1="4" y2="4"/></pattern><pattern height="8" id="cv-pat-7" patternUnits="userSpaceOnUse" width="8"><rect fill="#F0E442" height="8" width="8"/><line stroke="#9C9400" stroke-width="1.2" x1="4" x2="4" y1="0" y2="8"/></pattern><pattern height="8" id="cv-pat-8" patternUnits="userSpaceOnUse" width="8"><rect fill="#3A3A3A" height="8" width="8"/><line stroke="#000000" stroke-width="1.2" x1="0" x2="8" y1="0" y2="8"/><line stroke="#000000" stroke-width="1.2" x1="0" x2="8" y1="8" y2="0"/></pattern></defs><g class="cv-algebra"><g class="cv-alg-row"><text data-el="r0-e2" fill="#1A1A17" font-family="'KaTeX_Main', 'Latin Modern Math', serif" font-size="4.1" x="1.781" y="3.198">sin</text><text data-el="r0-e2" fill="#1A1A17" font-family="'KaTeX_Main', 'Latin Modern Math', serif" font-size="4.1" x="6.586" y="3.075">(</text><text data-el="r0-e1" fill="#1A1A17" font-family="'KaTeX_Main', 'Latin Modern Math', serif" font-size="4.1" font-style="italic" x="8.181" y="3.198">a</text><text data-el="r0-e2" fill="#1A1A17" font-family="'KaTeX_Main', 'Latin Modern Math', serif" font-size="4.1" x="10.276" y="3.075">)</text><text data-el="r0-e5" fill="#1A1A17" font-family="'KaTeX_Main', 'Latin Modern Math', serif" font-size="4.1" x="12.773" y="3.198">+</text><text data-el="r0-e4" fill="#1A1A17" font-family="'KaTeX_Main', 'Latin Modern Math', serif" font-size="4.1" x="16.865" y="3.198">sin</text><text data-el="r0-e4" fill="#1A1A17" font-family="'KaTeX_Main', 'Latin Modern Math', serif" font-size="4.1" x="21.67" y="3.075">(</text><text data-el="r0-e3" fill="#1A1A17" font-family="'KaTeX_Main', 'Latin Modern Math', serif" font-size="4.1" font-style="italic" x="23.265" y="3.198">b</text><text data-el="r0-e4" fill="#1A1A17" font-family="'KaTeX_Main', 'Latin Modern Math', serif" font-size="4.1" x="25.151" y="3.075">)</text><text data-el="r0-e7" fill="#1A1A17" font-family="'KaTeX_Main', 'Latin Modern Math', serif" font-size="4.1" x="1.1" y="9.18">cos</text><text data-el="r0-e7" fill="#1A1A17" font-family="'KaTeX_Main', 'Latin Modern Math', serif" font-size="4.1" x="6.586" y="9.057">(</text><text data-el="r0-e6" fill="#1A1A17" font-family="'KaTeX_Main', 'Latin Modern Math', serif" font-size="4.1" font-style="italic" x="8.181" y="9.18">a</text><text data-el="r0-e7" fill="#1A1A17" font-family="'KaTeX_Main', 'Latin Modern Math', serif" font-size="4.1" x="10.276" y="9.057">)</text><text data-el="r0-e10" fill="#1A1A17" font-family="'KaTeX_Main', 'Latin Modern Math', serif" font-size="4.1" x="12.773" y="9.18">+</text><text data-el="r0-e9" fill="#1A1A17" font-family="'KaTeX_Main', 'Latin Modern Math', serif" font-size="4.1" x="16.865" y="9.18">cos</text><text data-el="r0-e9" fill="#1A1A17" font-family="'KaTeX_Main', 'Latin Modern Math', serif" font-size="4.1" x="22.35" y="9.057">(</text><text data-el="r0-e8" fill="#1A1A17" font-family="'KaTeX_Main', 'Latin Modern Math', serif" font-size="4.1" font-style="italic" x="23.945" y="9.18">b</text><text data-el="r0-e9" fill="#1A1A17" font-family="'KaTeX_Main', 'Latin Modern Math', serif" font-size="4.1" x="25.831" y="9.057">)</text><line data-el="r0-e11" stroke="#1A1A17" stroke-linecap="round" stroke-width="0.375" x1="0" x2="28.526" y1="5.082" y2="5.082"/><g><rect fill="none" height="4.536" rx="0.6" width="2.695" x="7.881" y="-0.054"/></g><g><rect fill="none" height="4.782" rx="0.6" width="10.69" x="1.481" y="-0.3"/></g><g><rect fill="none" height="4.536" rx="0.6" width="2.486" x="22.965" y="-0.054"/></g><g><rect fill="none" height="4.782" rx="0.6" width="10.481" x="16.565" y="-0.3"/></g><g><rect fill="none" height="4.782" rx="0.6" width="25.565" x="1.481" y="-0.3"/></g><g><rect fill="none" height="4.536" rx="0.6" width="2.695" x="7.881" y="5.928"/></g><g><rect fill="none" height="4.782" rx="0.6" width="11.371" x="0.8" y="5.682"/></g><g><rect fill="none" height="4.536" rx="0.6" width="2.486" x="23.645" y="5.928"/></g><g><rect fill="none" height="4.782" rx="0.6" width="11.162" x="16.565" y="5.682"/></g><g><rect fill="none" height="4.782" rx="0.6" width="26.926" x="0.8" y="5.682"/></g><g><rect fill="none" height="10.764" rx="0.6" width="29.126" x="-0.3" y="-0.3"/></g><g><rect fill="none" height="11.364" rx="0.8" width="29.726" x="-0.6" y="-0.6"/></g></g><g class="cv-alg-row"><text data-el="r1-e22" fill="#1A1A17" font-family="'KaTeX_Main', 'Latin Modern Math', serif" font-size="4.1" x="1.1" y="18.078">2</text><text data-el="r1-e23" fill="#1A1A17" font-family="'KaTeX_Main', 'Latin Modern Math', serif" font-size="4.1" x="3.15" y="18.078">sin</text><text data-el="r1-e23" fill="#1A1A17" font-family="'KaTeX_Size2', serif" font-size="4.1" x="7.955" y="17.955">(</text><text data-el="r1-e1" fill="#1A1A17" font-family="'KaTeX_Main', 'Latin Modern Math', serif" font-size="3.362" font-style="italic" x="11.305" y="15.385">a</text><text data-el="r1-e14" fill="#1A1A17" font-family="'KaTeX_Main', 'Latin Modern Math', serif" font-size="3.362" x="13.763" y="15.385">+</text><text data-el="r1-e3" fill="#1A1A17" font-family="'KaTeX_Main', 'Latin Modern Math', serif" font-size="3.362" font-style="italic" x="17.118" y="15.385">b</text><text data-el="r1-e15" fill="#1A1A17" font-family="'KaTeX_Main', 'Latin Modern Math', serif" font-size="3.362" x="14.144" y="20.088">2</text><text data-el="r1-e23" fill="#1A1A17" font-family="'KaTeX_Size2', serif" font-size="4.1" x="19.566" y="17.955">)</text><text data-el="r1-e24" fill="#1A1A17" font-family="'KaTeX_Main', 'Latin Modern Math', serif" font-size="4.1" x="22.014" y="18.078">cos</text><text data-el="r1-e24" fill="#1A1A17" font-family="'KaTeX_Size2', serif" font-size="4.1" x="27.5" y="17.955">(</text><text data-el="r1-e12" fill="#1A1A17" font-family="'KaTeX_Main', 'Latin Modern Math', serif" font-size="3.362" font-style="italic" x="30.85" y="15.385">a</text><text data-el="r1-e19" fill="#1A1A17" font-family="'KaTeX_Main', 'Latin Modern Math', serif" font-size="3.362" x="33.307" y="15.385">−</text><text data-el="r1-e13" fill="#1A1A17" font-family="'KaTeX_Main', 'Latin Modern Math', serif" font-size="3.362" font-style="italic" x="36.662" y="15.385">b</text><text data-el="r1-e20" fill="#1A1A17" font-family="'KaTeX_Main', 'Latin Modern Math', serif" font-size="3.362" x="33.689" y="20.088">2</text><text data-el="r1-e24" fill="#1A1A17" font-family="'KaTeX_Size2', serif" font-size="4.1" x="39.111" y="17.955">)</text><text data-el="r1-e7" fill="#1A1A17" font-family="'KaTeX_Main', 'Latin Modern Math', serif" font-size="4.1" x="8.166" y="25.893">cos</text><text data-el="r1-e7" fill="#1A1A17" font-family="'KaTeX_Main', 'Latin Modern Math', serif" font-size="4.1" x="13.652" y="25.77">(</text><text data-el="r1-e6" fill="#1A1A17" font-family="'KaTeX_Main', 'Latin Modern Math', serif" font-size="4.1" font-style="italic" x="15.247" y="25.893">a</text><text data-el="r1-e7" fill="#1A1A17" font-family="'KaTeX_Main', 'Latin Modern Math', serif" font-size="4.1" x="17.342" y="25.77">)</text><text data-el="r1-e10" fill="#1A1A17" font-family="'KaTeX_Main', 'Latin Modern Math', serif" font-size="4.1" x="19.839" y="25.893">+</text><text data-el="r1-e9" fill="#1A1A17" font-family="'KaTeX_Main', 'Latin Modern Math', serif" font-size="4.1" x="23.931" y="25.893">cos</text><text data-el="r1-e9" fill="#1A1A17" font-family="'KaTeX_Main', 'Latin Modern Math', serif" font-size="4.1" x="29.417" y="25.77">(</text><text data-el="r1-e8" fill="#1A1A17" font-family="'KaTeX_Main', 'Latin Modern Math', serif" font-size="4.1" font-style="italic" x="31.011" y="25.893">b</text><text data-el="r1-e9" fill="#1A1A17" font-family="'KaTeX_Main', 'Latin Modern Math', serif" font-size="4.1" x="32.897" y="25.77">)</text><line data-el="r1-e16" stroke="#1A1A17" stroke-linecap="round" stroke-width="0.307" x1="10.403" x2="19.566" y1="16.93" y2="16.93"/><line data-el="r1-e21" stroke="#1A1A17" stroke-linecap="round" stroke-width="0.307" x1="29.948" x2="39.111" y1="16.93" y2="16.93"/><line data-el="r1-e11" stroke="#1A1A17" stroke-linecap="round" stroke-width="0.375" x1="0" x2="42.659" y1="21.795" y2="21.795"/><g><rect fill="none" height="4.536" rx="0.6" width="2.65" x="0.8" y="14.826"/></g><g><rect fill="none" height="3.828" rx="0.6" width="2.318" x="11.005" y="12.664"/></g><g><rect fill="none" height="3.828" rx="0.6" width="2.147" x="16.818" y="12.664"/></g><g><rect fill="none" height="3.828" rx="0.6" width="7.959" x="11.005" y="12.664"/></g><g><rect fill="none" height="3.828" rx="0.6" width="2.281" x="13.844" y="17.368"/></g><g><rect fill="none" height="8.531" rx="0.6" width="9.763" x="10.103" y="12.664"/></g><g><rect fill="none" height="8.531" rx="0.6" width="19.464" x="2.85" y="12.664"/></g><g><rect fill="none" height="3.828" rx="0.6" width="2.318" x="30.55" y="12.664"/></g><g><rect fill="none" height="3.828" rx="0.6" width="2.147" x="36.362" y="12.664"/></g><g><rect fill="none" height="3.828" rx="0.6" width="7.959" x="30.55" y="12.664"/></g><g><rect fill="none" height="3.828" rx="0.6" width="2.281" x="33.389" y="17.368"/></g><g><rect fill="none" height="8.531" rx="0.6" width="9.763" x="29.648" y="12.664"/></g><g><rect fill="none" height="8.531" rx="0.6" width="20.145" x="21.714" y="12.664"/></g><g><rect fill="none" height="8.531" rx="0.6" width="41.059" x="0.8" y="12.664"/></g><g><rect fill="none" height="4.536" rx="0.6" width="2.695" x="14.947" y="22.641"/></g><g><rect fill="none" height="4.782" rx="0.6" width="11.371" x="7.866" y="22.395"/></g><g><rect fill="none" height="4.536" rx="0.6" width="2.486" x="30.711" y="22.641"/></g><g><rect fill="none" height="4.782" rx="0.6" width="11.162" x="23.631" y="22.395"/></g><g><rect fill="none" height="4.782" rx="0.6" width="26.926" x="7.866" y="22.395"/></g><g><rect fill="none" height="14.513" rx="0.6" width="43.259" x="-0.3" y="12.664"/></g><g><rect fill="none" height="15.113" rx="0.8" width="43.859" x="-0.6" y="12.364"/></g><text data-el="row1" fill="#C4C4BD" font-family="'Inter', 'Segoe UI', system-ui, sans-serif" font-size="3.1" x="54.339" y="22.981">tử: sin + sin</text></g><g class="cv-alg-row"><text data-el="r2-e22" fill="#1A1A17" font-family="'KaTeX_Main', 'Latin Modern Math', serif" font-size="4.1" x="1.44" y="34.791">2</text><text data-el="r2-e23" fill="#1A1A17" font-family="'KaTeX_Main', 'Latin Modern Math', serif" font-size="4.1" x="3.49" y="34.791">sin</text><text data-el="r2-e23" fill="#1A1A17" font-family="'KaTeX_Size2', serif" font-size="4.1" x="8.296" y="34.668">(</text><text data-el="r2-e1" fill="#1A1A17" font-family="'KaTeX_Main', 'Latin Modern Math', serif" font-size="3.362" font-style="italic" x="11.645" y="32.098">a</text><text data-el="r2-e14" fill="#1A1A17" font-family="'KaTeX_Main', 'Latin Modern Math', serif" font-size="3.362" x="14.103" y="32.098">+</text><text data-el="r2-e3" fill="#1A1A17" font-family="'KaTeX_Main', 'Latin Modern Math', serif" font-size="3.362" font-style="italic" x="17.458" y="32.098">b</text><text data-el="r2-e15" fill="#1A1A17" font-family="'KaTeX_Main', 'Latin Modern Math', serif" font-size="3.362" x="14.484" y="36.801">2</text><text data-el="r2-e23" fill="#1A1A17" font-family="'KaTeX_Size2', serif" font-size="4.1" x="19.907" y="34.668">)</text><text data-el="r2-e24" fill="#1A1A17" font-family="'KaTeX_Main', 'Latin Modern Math', serif" font-size="4.1" x="22.354" y="34.791">cos</text><text data-el="r2-e24" fill="#1A1A17" font-family="'KaTeX_Size2', serif" font-size="4.1" x="27.84" y="34.668">(</text><text data-el="r2-e12" fill="#1A1A17" font-family="'KaTeX_Main', 'Latin Modern Math', serif" font-size="3.362" font-style="italic" x="31.19" y="32.098">a</text><text data-el="r2-e19" fill="#1A1A17" font-family="'KaTeX_Main', 'Latin Modern Math', serif" font-size="3.362" x="33.647" y="32.098">−</text><text data-el="r2-e13" fill="#1A1A17" font-family="'KaTeX_Main', 'Latin Modern Math', serif" font-size="3.362" font-style="italic" x="37.003" y="32.098">b</text><text data-el="r2-e20" fill="#1A1A17" font-family="'KaTeX_Main', 'Latin Modern Math', serif" font-size="3.362" x="34.029" y="36.801">2</text><text data-el="r2-e24" fill="#1A1A17" font-family="'KaTeX_Size2', serif" font-size="4.1" x="39.451" y="34.668">)</text><text data-el="r2-e36" fill="#1A1A17" font-family="'KaTeX_Main', 'Latin Modern Math', serif" font-size="4.1" x="1.1" y="44.522">2</text><text data-el="r2-e37" fill="#1A1A17" font-family="'KaTeX_Main', 'Latin Modern Math', serif" font-size="4.1" x="3.15" y="44.522">cos</text><text data-el="r2-e37" fill="#1A1A17" font-family="'KaTeX_Size2', serif" font-size="4.1" x="8.636" y="44.399">(</text><text data-el="r2-e6" fill="#1A1A17" font-family="'KaTeX_Main', 'Latin Modern Math', serif" font-size="3.362" font-style="italic" x="11.986" y="41.829">a</text><text data-el="r2-e28" fill="#1A1A17" font-family="'KaTeX_Main', 'Latin Modern Math', serif" font-size="3.362" x="14.443" y="41.829">+</text><text data-el="r2-e8" fill="#1A1A17" font-family="'KaTeX_Main', 'Latin Modern Math', serif" font-size="3.362" font-style="italic" x="17.798" y="41.829">b</text><text data-el="r2-e29" fill="#1A1A17" font-family="'KaTeX_Main', 'Latin Modern Math', serif" font-size="3.362" x="14.825" y="46.532">2</text><text data-el="r2-e37" fill="#1A1A17" font-family="'KaTeX_Size2', serif" font-size="4.1" x="20.247" y="44.399">)</text><text data-el="r2-e38" fill="#1A1A17" font-family="'KaTeX_Main', 'Latin Modern Math', serif" font-size="4.1" x="22.695" y="44.522">cos</text><text data-el="r2-e38" fill="#1A1A17" font-family="'KaTeX_Size2', serif" font-size="4.1" x="28.18" y="44.399">(</text><text data-el="r2-e26" fill="#1A1A17" font-family="'KaTeX_Main', 'Latin Modern Math', serif" font-size="3.362" font-style="italic" x="31.53" y="41.829">a</text><text data-el="r2-e33" fill="#1A1A17" font-family="'KaTeX_Main', 'Latin Modern Math', serif" font-size="3.362" x="33.988" y="41.829">−</text><text data-el="r2-e27" fill="#1A1A17" font-family="'KaTeX_Main', 'Latin Modern Math', serif" font-size="3.362" font-style="italic" x="37.343" y="41.829">b</text><text data-el="r2-e34" fill="#1A1A17" font-family="'KaTeX_Main', 'Latin Modern Math', serif" font-size="3.362" x="34.369" y="46.532">2</text><text data-el="r2-e38" fill="#1A1A17" font-family="'KaTeX_Size2', serif" font-size="4.1" x="39.792" y="44.399">)</text><line data-el="r2-e16" stroke="#1A1A17" stroke-linecap="round" stroke-width="0.307" x1="10.743" x2="19.907" y1="33.643" y2="33.643"/><line data-el="r2-e21" stroke="#1A1A17" stroke-linecap="round" stroke-width="0.307" x1="30.288" x2="39.451" y1="33.643" y2="33.643"/><line data-el="r2-e30" stroke="#1A1A17" stroke-linecap="round" stroke-width="0.307" x1="11.084" x2="20.247" y1="43.374" y2="43.374"/><line data-el="r2-e35" stroke="#1A1A17" stroke-linecap="round" stroke-width="0.307" x1="30.628" x2="39.792" y1="43.374" y2="43.374"/><line data-el="r2-e11" stroke="#1A1A17" stroke-linecap="round" stroke-width="0.375" x1="0" x2="43.339" y1="38.508" y2="38.508"/><g><rect fill="none" height="4.536" rx="0.6" width="2.65" x="1.14" y="31.539"/></g><g><rect fill="none" height="3.828" rx="0.6" width="2.318" x="11.345" y="29.377"/></g><g><rect fill="none" height="3.828" rx="0.6" width="2.147" x="17.158" y="29.377"/></g><g><rect fill="none" height="3.828" rx="0.6" width="7.959" x="11.345" y="29.377"/></g><g><rect fill="none" height="3.828" rx="0.6" width="2.281" x="14.184" y="34.081"/></g><g><rect fill="none" height="8.531" rx="0.6" width="9.763" x="10.443" y="29.377"/></g><g><rect fill="none" height="8.531" rx="0.6" width="19.464" x="3.19" y="29.377"/></g><g><rect fill="none" height="3.828" rx="0.6" width="2.318" x="30.89" y="29.377"/></g><g><rect fill="none" height="3.828" rx="0.6" width="2.147" x="36.703" y="29.377"/></g><g><rect fill="none" height="3.828" rx="0.6" width="7.959" x="30.89" y="29.377"/></g><g><rect fill="none" height="3.828" rx="0.6" width="2.281" x="33.729" y="34.081"/></g><g><rect fill="none" height="8.531" rx="0.6" width="9.763" x="29.988" y="29.377"/></g><g><rect fill="none" height="8.531" rx="0.6" width="20.145" x="22.054" y="29.377"/></g><g><rect fill="none" height="8.531" rx="0.6" width="41.059" x="1.14" y="29.377"/></g><g><rect fill="none" height="4.536" rx="0.6" width="2.65" x="0.8" y="41.27"/></g><g><rect fill="none" height="3.828" rx="0.6" width="2.318" x="11.686" y="39.108"/></g><g><rect fill="none" height="3.828" rx="0.6" width="2.147" x="17.498" y="39.108"/></g><g><rect fill="none" height="3.828" rx="0.6" width="7.959" x="11.686" y="39.108"/></g><g><rect fill="none" height="3.828" rx="0.6" width="2.281" x="14.525" y="43.812"/></g><g><rect fill="none" height="8.531" rx="0.6" width="9.763" x="10.784" y="39.108"/></g><g><rect fill="none" height="8.531" rx="0.6" width="20.145" x="2.85" y="39.108"/></g><g><rect fill="none" height="3.828" rx="0.6" width="2.318" x="31.23" y="39.108"/></g><g><rect fill="none" height="3.828" rx="0.6" width="2.147" x="37.043" y="39.108"/></g><g><rect fill="none" height="3.828" rx="0.6" width="7.959" x="31.23" y="39.108"/></g><g><rect fill="none" height="3.828" rx="0.6" width="2.281" x="34.069" y="43.812"/></g><g><rect fill="none" height="8.531" rx="0.6" width="9.763" x="30.328" y="39.108"/></g><g><rect fill="none" height="8.531" rx="0.6" width="20.145" x="22.395" y="39.108"/></g><g><rect fill="none" height="8.531" rx="0.6" width="41.739" x="0.8" y="39.108"/></g><g><rect fill="none" height="18.262" rx="0.6" width="43.939" x="-0.3" y="29.377"/></g><g><rect fill="none" height="18.862" rx="0.8" width="44.539" x="-0.6" y="29.077"/></g><text data-el="row2" fill="#C4C4BD" font-family="'Inter', 'Segoe UI', system-ui, sans-serif" font-size="3.1" x="54.339" y="42.394">mẫu: cos + cos</text></g></g></svg>