<svg viewBox="-3 -3 65.605 28.8" xmlns="http://www.w3.org/2000/svg"><rect fill="#FDFDFC" height="28.8" width="65.605" x="-3" y="-3"/><defs><pattern height="8" id="cv-pat-1" patternUnits="userSpaceOnUse" width="8"><rect fill="#0072B2" height="8" width="8"/></pattern><pattern height="8" id="cv-pat-2" patternUnits="userSpaceOnUse" width="8"><rect fill="#9ED9F5" height="8" width="8"/><line stroke="#3E8BB5" stroke-width="1.2" x1="0" x2="8" y1="8" y2="0"/><line stroke="#3E8BB5" stroke-width="1.2" x1="-1" x2="1" y1="1" y2="-1"/><line stroke="#3E8BB5" stroke-width="1.2" x1="7" x2="9" y1="9" y2="7"/></pattern><pattern height="8" id="cv-pat-3" patternUnits="userSpaceOnUse" width="8"><rect fill="#D55E00" height="8" width="8"/><line stroke="#8A3D00" stroke-width="1.2" x1="0" x2="8" y1="0" y2="8"/><line stroke="#8A3D00" stroke-width="1.2" x1="-1" x2="1" y1="7" y2="9"/><line stroke="#8A3D00" stroke-width="1.2" x1="7" x2="9" y1="-1" y2="1"/></pattern><pattern height="8" id="cv-pat-4" patternUnits="userSpaceOnUse" width="8"><rect fill="#009E73" height="8" width="8"/><circle cx="4" cy="4" fill="#006147" r="1.4"/></pattern><pattern height="8" id="cv-pat-5" patternUnits="userSpaceOnUse" width="8"><rect fill="#E69F00" height="8" width="8"/><line stroke="#9A6B00" stroke-width="1.2" x1="0" x2="8" y1="4" y2="4"/><line stroke="#9A6B00" stroke-width="1.2" x1="4" x2="4" y1="0" y2="8"/></pattern><pattern height="8" id="cv-pat-6" patternUnits="userSpaceOnUse" width="8"><rect fill="#CC79A7" height="8" width="8"/><line stroke="#8A4E70" stroke-width="1.2" x1="0" x2="8" y1="4" y2="4"/></pattern><pattern height="8" id="cv-pat-7" patternUnits="userSpaceOnUse" width="8"><rect fill="#F0E442" height="8" width="8"/><line stroke="#9C9400" stroke-width="1.2" x1="4" x2="4" y1="0" y2="8"/></pattern><pattern height="8" id="cv-pat-8" patternUnits="userSpaceOnUse" width="8"><rect fill="#3A3A3A" height="8" width="8"/><line stroke="#000000" stroke-width="1.2" x1="0" x2="8" y1="0" y2="8"/><line stroke="#000000" stroke-width="1.2" x1="0" x2="8" y1="8" y2="0"/></pattern></defs><g class="cv-algebra"><g class="cv-alg-row"><text data-el="r0-e2" fill="#1A1A17" font-family="'KaTeX_Main', 'Latin Modern Math', serif" font-size="5" font-style="italic" x="0" y="3.6">x</text><text data-el="r0-e7" fill="#1A1A17" font-family="'KaTeX_Main', 'Latin Modern Math', serif" font-size="5" x="3.6" y="3.6">+</text><text data-el="r0-e4" fill="#1A1A17" font-family="'KaTeX_Main', 'Latin Modern Math', serif" font-size="5" x="7.8" y="3.6">2</text><text data-el="r0-e5" fill="#1A1A17" font-family="'KaTeX_Main', 'Latin Modern Math', serif" font-size="5" font-style="italic" x="10.3" y="3.6">x</text><g><rect fill="none" height="5.4" rx="0.6" width="3.1" x="-0.3" y="-0.3"/></g><g><rect fill="none" height="5.4" rx="0.6" width="3.1" x="-0.3" y="-0.3"/></g><g><rect fill="none" height="5.4" rx="0.6" width="3.1" x="7.5" y="-0.3"/></g><g><rect fill="none" height="5.4" rx="0.6" width="3.1" x="10" y="-0.3"/></g><g><rect fill="none" height="5.4" rx="0.6" width="5.6" x="7.5" y="-0.3"/></g><g><rect fill="none" height="5.4" rx="0.6" width="13.4" x="-0.3" y="-0.3"/></g><g><rect fill="none" height="6" rx="0.8" width="14" x="-0.6" y="-0.6"/></g></g><g class="cv-alg-row"><text data-el="r1-e2" fill="#1A1A17" font-family="'KaTeX_Main', 'Latin Modern Math', serif" font-size="5" font-style="italic" x="0" y="11.2">x</text><text data-el="r1-e7" fill="#1A1A17" font-family="'KaTeX_Main', 'Latin Modern Math', serif" font-size="5" x="3.6" y="11.2">+</text><text data-el="r1-e4" fill="#1A1A17" font-family="'KaTeX_Main', 'Latin Modern Math', serif" font-size="5" x="7.8" y="11.2">2</text><text data-el="r1-e5" fill="#1A1A17" font-family="'KaTeX_Main', 'Latin Modern Math', serif" font-size="5" font-style="italic" x="10.3" y="11.2">x</text><g><rect fill="none" height="5.4" rx="0.6" width="3.1" x="-0.3" y="7.3"/></g><g><rect fill="none" height="5.4" rx="0.6" width="3.1" x="7.5" y="7.3"/></g><g><rect fill="none" height="5.4" rx="0.6" width="3.1" x="10" y="7.3"/></g><g><rect fill="none" height="5.4" rx="0.6" width="5.6" x="7.5" y="7.3"/></g><g><rect fill="none" height="5.4" rx="0.6" width="13.4" x="-0.3" y="7.3"/></g><g><rect fill="none" height="6" rx="0.8" width="14" x="-0.6" y="7"/></g><text data-el="row1" fill="#C4C4BD" font-family="'Inter', 'Segoe UI', system-ui, sans-serif" font-size="3.1" x="23.8" y="11.056">bỏ nhân 1, cộng 0</text></g><g class="cv-alg-row"><text data-el="r2-e8" fill="#1A1A17" font-family="'KaTeX_Main', 'Latin Modern Math', serif" font-size="5" x="0" y="18.8">3</text><text data-el="r2-e2" fill="#1A1A17" font-family="'KaTeX_Main', 'Latin Modern Math', serif" font-size="5" font-style="italic" x="2.5" y="18.8">x</text><g><rect fill="none" height="5.4" rx="0.6" width="3.1" x="-0.3" y="14.9"/></g><g><rect fill="none" height="5.4" rx="0.6" width="3.1" x="2.2" y="14.9"/></g><g><rect fill="none" height="5.4" rx="0.6" width="5.6" x="-0.3" y="14.9"/></g><g><rect fill="none" height="6" rx="0.8" width="6.2" x="-0.6" y="14.6"/></g><text data-el="row2" fill="#C4C4BD" font-family="'Inter', 'Segoe UI', system-ui, sans-serif" font-size="3.1" x="23.8" y="18.656">gộp hạng tử đồng dạng</text></g></g></svg>